<?xml version="1.0" encoding="utf-8" standalone="no"?>
<!DOCTYPE svg PUBLIC "-//W3C//DTD SVG 1.1//EN"
  "http://www.w3.org/Graphics/SVG/1.1/DTD/svg11.dtd">
<svg xmlns:xlink="http://www.w3.org/1999/xlink" width="432pt" height="576pt" viewBox="0 0 432 576" xmlns="http://www.w3.org/2000/svg" version="1.1">
 <metadata>
  <rdf:RDF xmlns:dc="http://purl.org/dc/elements/1.1/" xmlns:cc="http://creativecommons.org/ns#" xmlns:rdf="http://www.w3.org/1999/02/22-rdf-syntax-ns#">
   <cc:Work>
    <dc:type rdf:resource="http://purl.org/dc/dcmitype/StillImage"/>
    <dc:date>2024-08-06T13:43:38.060045</dc:date>
    <dc:format>image/svg+xml</dc:format>
    <dc:creator>
     <cc:Agent>
      <dc:title>Matplotlib v3.8.3, https://matplotlib.org/</dc:title>
     </cc:Agent>
    </dc:creator>
   </cc:Work>
  </rdf:RDF>
 </metadata>
 <defs>
  <style type="text/css">*{stroke-linejoin: round; stroke-linecap: butt}</style>
 </defs>
 <g id="figure_1">
  <g id="patch_1">
   <path d="M 0 576 
L 432 576 
L 432 0 
L 0 0 
z
" style="fill: #ffffff"/>
  </g>
  <g id="axes_1">
   <g id="patch_2">
    <path d="M 84.872 528.28 
L 421.2 528.28 
L 421.2 16.2 
L 84.872 16.2 
z
" style="fill: #ffffff"/>
   </g>
   <g id="PolyCollection_1">
    <path d="M 320.778833 784.960868 
L 320.778833 784.960868 
L 320.778833 783.679132 
L 320.778833 782.397396 
L 320.778833 781.115403 
L 320.778833 779.833667 
L 320.778833 778.551931 
L 320.778833 777.270195 
L 320.778833 775.988202 
L 320.778833 774.706466 
L 320.778833 773.42473 
L 320.778833 772.142994 
L 320.778833 770.861001 
L 320.778833 769.579265 
L 320.778833 768.297529 
L 320.778833 767.015793 
L 320.778833 765.7338 
L 320.778833 764.452064 
L 320.778833 763.170328 
L 320.778833 761.888336 
L 320.778833 760.606599 
L 320.778833 759.324863 
L 320.778833 758.043127 
L 320.778833 756.761135 
L 320.778833 755.479398 
L 320.778833 754.197662 
L 320.778833 752.915926 
L 320.778833 751.633934 
L 320.778833 750.352197 
L 320.778833 749.070461 
L 320.778833 747.788725 
L 320.778833 746.506733 
L 320.778833 745.224996 
L 320.778833 743.94326 
L 320.778833 742.661524 
L 320.778833 741.379532 
L 320.778833 740.097795 
L 320.778833 738.816059 
L 320.778833 737.534323 
L 320.778833 736.252331 
L 320.778833 734.970594 
L 320.778833 733.688858 
L 320.778833 732.407122 
L 320.778833 731.12513 
L 320.778833 729.843393 
L 320.778833 728.561657 
L 320.778833 727.279921 
L 320.778833 725.997929 
L 320.778833 724.716192 
L 320.778833 723.434456 
L 320.778833 722.152464 
L 320.778833 720.870728 
L 320.778833 719.588991 
L 320.778833 718.307255 
L 320.778833 717.025263 
L 320.778833 715.743527 
L 320.778833 714.46179 
L 320.778833 713.180054 
L 320.778833 711.898062 
L 320.778833 710.616326 
L 320.778833 709.334589 
L 320.778833 708.052853 
L 320.778833 706.770861 
L 320.778833 705.489125 
L 320.778833 704.207388 
L 320.778833 702.925652 
L 320.778833 701.64366 
L 320.778833 700.361924 
L 320.778833 699.080187 
L 320.778833 697.798451 
L 320.778833 696.516459 
L 320.778833 695.234723 
L 320.778833 693.952986 
L 320.778833 692.67125 
L 320.778833 691.389258 
L 320.778833 690.107522 
L 320.778833 688.825785 
L 320.778833 687.544049 
L 320.778833 686.262057 
L 320.778833 684.980321 
L 320.778833 683.698584 
L 320.778833 682.416848 
L 320.778833 681.134856 
L 320.778833 679.85312 
L 320.778833 678.571383 
L 320.778833 677.289391 
L 320.778833 676.007655 
L 320.778833 674.725919 
L 320.778833 673.444182 
L 320.778833 672.16219 
L 320.778833 670.880454 
L 320.778833 669.598718 
L 320.778833 668.316981 
L 320.778833 667.034989 
L 320.778833 665.753253 
L 320.778833 664.471517 
L 320.778833 663.18978 
L 320.778833 661.907788 
L 320.778833 660.626052 
L 320.778833 659.344316 
L 320.778833 658.062579 
L 320.778833 656.780587 
L 320.778833 655.498851 
L 320.778833 654.217115 
L 320.778833 652.935378 
L 320.778833 651.653386 
L 320.778833 650.37165 
L 320.778833 649.089914 
L 320.778833 647.808177 
L 320.778833 646.526185 
L 320.778833 645.244449 
L 320.778833 643.962713 
L 320.778833 642.680976 
L 320.778833 641.398984 
L 320.778833 640.117248 
L 320.778833 638.835512 
L 320.778833 637.553519 
L 320.778833 636.271783 
L 320.778833 634.990047 
L 320.778833 633.708311 
L 320.778833 632.426318 
L 320.778833 631.144582 
L 320.778833 629.862846 
L 320.778833 628.58111 
L 320.778833 627.299117 
L 320.778833 626.017381 
L 320.778833 624.735645 
L 320.778833 623.453909 
L 320.778833 622.171916 
L 320.778833 620.89018 
L 320.778833 619.608444 
L 320.778833 618.326708 
L 320.778833 617.044715 
L 320.778833 615.762979 
L 320.778833 614.481243 
L 320.778833 613.199507 
L 320.778833 611.917514 
L 320.778833 610.635778 
L 320.778833 609.354042 
L 320.778833 608.072306 
L 320.778833 606.790313 
L 320.778833 605.508577 
L 320.778833 604.226841 
L 320.778833 602.945105 
L 320.778833 601.663112 
L 320.778833 600.381376 
L 320.778833 599.09964 
L 320.778833 597.817648 
L 320.778833 596.535911 
L 320.778833 595.254175 
L 320.778833 593.972439 
L 320.778833 592.690447 
L 320.778833 591.40871 
L 320.778833 590.126974 
L 320.778833 588.845238 
L 320.778833 587.563246 
L 320.778833 586.281509 
L 320.778833 584.999773 
L 320.778833 583.718037 
L 320.778833 582.436045 
L 320.778833 581.154308 
L 320.778833 579.872572 
L 320.778833 578.590836 
L 320.778833 577.308844 
L 320.778833 576.027107 
L 320.778833 574.745371 
L 320.778833 573.463635 
L 320.778833 572.181643 
L 320.778833 570.899906 
L 320.778833 569.61817 
L 320.778833 568.336434 
L 320.778833 567.054442 
L 320.778833 565.772705 
L 320.778833 564.490969 
L 320.778833 563.209233 
L 320.778833 561.927241 
L 320.778833 560.645504 
L 320.778833 559.363768 
L 320.778833 558.081776 
L 320.778833 556.80004 
L 320.778833 555.518303 
L 320.778833 554.236567 
L 320.778833 552.954575 
L 320.778833 551.672839 
L 320.778833 550.391102 
L 320.778833 549.109366 
L 320.778833 547.827374 
L 320.778833 546.545638 
L 320.778833 545.263901 
L 320.778833 543.982165 
L 320.778833 542.700173 
L 320.778833 541.418437 
L 320.778833 540.1367 
L 320.778833 538.854964 
L 320.778833 537.572972 
L 320.778833 536.291236 
L 320.778833 535.009499 
L 320.778833 533.727763 
L 320.778833 532.445771 
L 320.778833 531.164035 
L 320.778833 529.882298 
L 320.778833 528.600562 
L 320.778833 527.31857 
L 320.778833 526.036834 
L 320.778833 524.755097 
L 320.778833 523.473361 
L 320.778833 522.191369 
L 320.778833 520.909633 
L 320.778833 519.627896 
L 320.778833 518.34616 
L 320.778833 517.064168 
L 320.778833 515.782432 
L 320.778833 514.500695 
L 320.778833 513.218703 
L 320.778833 511.936967 
L 320.778833 510.655231 
L 320.778833 509.373494 
L 320.778833 508.091502 
L 320.778833 506.809766 
L 320.778833 505.52803 
L 320.778833 504.246293 
L 320.778833 502.964301 
L 320.778833 501.682565 
L 320.778833 500.400829 
L 320.778833 499.119092 
L 320.778833 497.8371 
L 320.778833 496.555364 
L 320.778833 495.273628 
L 320.778833 493.991891 
L 320.778833 492.709899 
L 320.778833 491.428163 
L 320.778833 490.146427 
L 320.778833 488.86469 
L 320.778833 487.582698 
L 320.778833 486.300962 
L 320.778833 485.019226 
L 320.778833 483.737489 
L 320.778833 482.455497 
L 320.778833 481.173761 
L 320.778833 479.892025 
L 320.778833 478.610288 
L 320.778833 477.328296 
L 320.778833 476.04656 
L 320.778833 474.764824 
L 320.778833 473.482831 
L 320.778833 472.201095 
L 320.778833 470.919359 
L 320.778833 469.637623 
L 320.778833 468.35563 
L 320.778833 467.073894 
L 320.778833 465.792158 
L 320.778833 464.510422 
L 320.778833 463.228429 
L 320.778833 461.946693 
L 320.778833 460.664957 
L 320.778833 459.383221 
L 320.778833 458.101228 
L 320.778833 456.819492 
L 320.778833 455.537756 
L 320.778833 454.25602 
L 320.778833 452.974027 
L 320.778833 451.692291 
L 320.778833 450.410555 
L 320.778833 449.128819 
L 320.778833 447.846826 
L 320.778833 446.56509 
L 320.778833 445.283354 
L 320.778833 444.001618 
L 320.778833 442.719625 
L 320.778833 441.437889 
L 320.778833 440.156153 
L 320.778833 438.874417 
L 320.778833 437.592424 
L 320.778833 436.310688 
L 320.778833 435.028952 
L 320.778833 433.74696 
L 320.778833 432.465223 
L 320.778833 431.183487 
L 320.778833 429.901751 
L 320.778833 428.619759 
L 320.778833 427.338022 
L 320.778833 426.056286 
L 320.778833 424.77455 
L 320.778833 423.492558 
L 320.778833 422.210821 
L 320.778833 420.929085 
L 320.778833 419.647349 
L 320.778833 418.365357 
L 320.778833 417.08362 
L 320.778833 415.801884 
L 320.778833 414.520148 
L 320.778833 413.238156 
L 320.778833 411.956419 
L 320.778833 410.674683 
L 320.778833 409.392947 
L 320.778833 408.110955 
L 320.778833 406.829218 
L 320.778833 405.547482 
L 320.778833 404.265746 
L 320.778833 402.983754 
L 320.778833 401.702017 
L 320.778833 400.420281 
L 320.778833 399.138545 
L 320.778833 397.856553 
L 320.778833 396.574816 
L 320.778833 395.29308 
L 320.778833 394.011088 
L 320.778833 392.729352 
L 320.778833 391.447615 
L 320.778833 390.165879 
L 320.778833 388.883887 
L 320.778833 387.602151 
L 320.778833 386.320414 
L 320.778833 385.038678 
L 320.778833 383.756686 
L 320.778833 382.47495 
L 320.778833 381.193213 
L 320.778833 379.911477 
L 320.778833 378.629485 
L 320.778833 377.347749 
L 320.778833 376.066012 
L 320.778833 374.784276 
L 320.778833 373.502284 
L 320.778833 372.220548 
L 320.778833 370.938811 
L 320.778833 369.657075 
L 320.778833 368.375083 
L 320.778833 367.093347 
L 320.778833 365.81161 
L 320.778833 364.529874 
L 320.778833 363.247882 
L 320.778833 361.966146 
L 320.778833 360.684409 
L 320.778833 359.402673 
L 320.778833 358.120681 
L 320.778833 356.838945 
L 320.778833 355.557208 
L 320.778833 354.275472 
L 320.778833 352.99348 
L 320.778833 351.711744 
L 320.778833 350.430007 
L 320.778833 349.148015 
L 320.778833 347.866279 
L 320.778833 346.584543 
L 320.778833 345.302806 
L 320.778833 344.020814 
L 320.778833 342.739078 
L 320.778833 341.457342 
L 320.778833 340.175605 
L 320.778833 338.893613 
L 320.778833 337.611877 
L 320.778833 336.330141 
L 320.778833 335.048404 
L 320.778833 333.766412 
L 320.778833 332.484676 
L 320.778833 331.20294 
L 320.778833 329.921203 
L 320.778833 328.639211 
L 320.778833 327.357475 
L 320.778833 326.075739 
L 320.778833 324.794002 
L 320.778833 323.51201 
L 320.778833 322.230274 
L 320.778833 320.948538 
L 320.778833 319.666801 
L 320.778833 318.384809 
L 320.778833 317.103073 
L 320.778833 315.821337 
L 320.778833 314.5396 
L 320.778833 313.257608 
L 320.778833 311.975872 
L 320.778833 310.694136 
L 320.778833 309.412143 
L 320.778833 308.130407 
L 320.778833 306.848671 
L 320.778833 305.566935 
L 320.778833 304.284942 
L 320.778833 303.003206 
L 320.778833 301.72147 
L 320.778833 300.439734 
L 320.778833 299.157741 
L 320.778833 297.876005 
L 320.778833 296.594269 
L 320.778833 295.312533 
L 320.778833 294.03054 
L 320.778833 292.748804 
L 320.778833 291.467068 
L 320.778833 290.185332 
L 320.778833 288.903339 
L 320.778833 287.621603 
L 320.778833 286.339867 
L 320.778833 285.058131 
L 320.778833 283.776138 
L 320.778833 282.494402 
L 320.778833 281.212666 
L 320.778833 279.93093 
L 320.778833 278.648937 
L 320.778833 277.367201 
L 320.778833 276.085465 
L 320.778833 274.803729 
L 320.778833 273.521736 
L 271.892774 273.521736 
L 271.892774 273.521736 
L 248.991652 274.803729 
L 219.518464 276.085465 
L 184.888732 277.367201 
L 149.500685 278.648937 
L 119.82528 279.93093 
L 102.131256 281.212666 
L 100.159636 282.494402 
L 113.404877 283.776138 
L 138.277619 285.058131 
L 169.216883 286.339867 
L 200.813353 287.621603 
L 229.073237 288.903339 
L 251.923804 290.185332 
L 269.516719 291.467068 
L 283.11584 292.748804 
L 294.237798 294.03054 
L 303.843125 295.312533 
L 312.437365 296.594269 
L 320.071072 297.876005 
L 326.794801 299.157741 
L 332.507443 300.439734 
L 336.956226 301.72147 
L 340.14115 303.003206 
L 342.062216 304.284942 
L 343.376629 305.566935 
L 344.994368 306.848671 
L 347.774858 308.130407 
L 351.86976 309.412143 
L 356.571315 310.694136 
L 360.413446 311.975872 
L 362.08174 313.257608 
L 361.475087 314.5396 
L 359.655131 315.821337 
L 358.1385 317.103073 
L 357.835174 318.384809 
L 358.542935 319.666801 
L 358.896815 320.948538 
L 357.632956 322.230274 
L 354.245815 323.51201 
L 349.291488 324.794002 
L 344.134944 326.075739 
L 340.090596 327.357475 
L 338.169531 328.639211 
L 338.776183 329.921203 
L 341.809444 331.20294 
L 347.016542 332.484676 
L 354.245815 333.766412 
L 363.446707 335.048404 
L 374.113676 336.330141 
L 385.336742 337.611877 
L 395.447613 338.893613 
L 402.676885 340.175605 
L 405.912364 341.457342 
L 405.305711 342.739078 
L 402.424113 344.020814 
L 399.542515 345.302806 
L 397.924776 346.584543 
L 397.368678 347.866279 
L 396.054265 349.148015 
L 391.35271 350.430007 
L 381.241839 351.711744 
L 364.811675 352.99348 
L 342.820531 354.275472 
L 317.391691 355.557208 
L 292.013406 356.838945 
L 270.628915 358.120681 
L 256.675913 359.402673 
L 252.075467 360.684409 
L 256.322033 361.966146 
L 266.887893 363.247882 
L 280.183688 364.529874 
L 293.075048 365.81161 
L 303.539799 367.093347 
L 310.920734 368.375083 
L 315.622289 369.657075 
L 318.352224 370.938811 
L 320.020518 372.220548 
L 321.082159 373.502284 
L 321.840475 374.784276 
L 322.447127 376.066012 
L 322.95267 377.347749 
L 323.306551 378.629485 
L 323.609877 379.911477 
L 324.014312 381.193213 
L 324.671518 382.47495 
L 325.935377 383.756686 
L 327.805888 385.038678 
L 330.181943 386.320414 
L 332.608552 387.602151 
L 334.377954 388.883887 
L 334.782389 390.165879 
L 333.467976 391.447615 
L 330.38416 392.729352 
L 326.036486 394.011088 
L 320.930496 395.29308 
L 315.773952 396.574816 
L 311.173506 397.856553 
L 307.73581 399.138545 
L 305.814745 400.420281 
L 305.713636 401.702017 
L 307.331375 402.983754 
L 310.111865 404.265746 
L 313.347343 405.547482 
L 316.33005 406.829218 
L 318.706105 408.110955 
L 320.374398 409.392947 
L 321.688811 410.674683 
L 322.902116 411.956419 
L 324.165975 413.238156 
L 325.530942 414.520148 
L 326.744247 415.801884 
L 327.553116 417.08362 
L 327.957551 418.365357 
L 328.109214 419.647349 
L 328.210323 420.929085 
L 328.715867 422.210821 
L 329.625845 423.492558 
L 330.788595 424.77455 
L 331.799682 426.056286 
L 332.204117 427.338022 
L 331.749128 428.619759 
L 330.535823 429.901751 
L 328.918084 431.183487 
L 327.350899 432.465223 
L 326.188149 433.74696 
L 325.581497 435.028952 
L 325.530942 436.310688 
L 325.884823 437.592424 
L 326.440921 438.874417 
L 327.047573 440.156153 
L 327.654225 441.437889 
L 328.159769 442.719625 
L 328.614758 444.001618 
L 329.019193 445.283354 
L 329.322519 446.56509 
L 329.170856 447.846826 
L 328.564203 449.128819 
L 327.553116 450.410555 
L 326.592584 451.692291 
L 326.592584 452.974027 
L 328.665312 454.25602 
L 334.175737 455.537756 
L 344.08439 456.819492 
L 358.290163 458.101228 
L 375.023654 459.383221 
L 390.594395 460.664957 
L 400.553602 461.946693 
L 401.817461 463.228429 
L 393.981536 464.510422 
L 379.775763 465.792158 
L 363.446707 467.073894 
L 348.836499 468.35563 
L 337.916759 469.637623 
L 330.940258 470.919359 
L 326.946464 472.201095 
L 324.823181 473.482831 
L 323.609877 474.764824 
L 322.902116 476.04656 
L 322.396572 477.328296 
L 322.042692 478.610288 
L 321.891029 479.892025 
L 321.891029 481.173761 
L 321.992138 482.455497 
L 322.194355 483.737489 
L 322.346018 485.019226 
L 322.396572 486.300962 
L 322.295464 487.582698 
L 322.042692 488.86469 
L 321.739366 490.146427 
L 321.43604 491.428163 
L 321.183268 492.709899 
L 320.981051 493.991891 
L 320.879942 495.273628 
L 320.829387 496.555364 
L 320.778833 497.8371 
L 320.778833 499.119092 
L 320.778833 500.400829 
L 320.778833 501.682565 
L 320.778833 502.964301 
L 320.778833 504.246293 
L 320.778833 505.52803 
L 320.778833 506.809766 
L 320.778833 508.091502 
L 320.778833 509.373494 
L 320.778833 510.655231 
L 320.778833 511.936967 
L 320.778833 513.218703 
L 320.778833 514.500695 
L 320.778833 515.782432 
L 320.778833 517.064168 
L 320.778833 518.34616 
L 320.778833 519.627896 
L 320.778833 520.909633 
L 320.778833 522.191369 
L 320.778833 523.473361 
L 320.778833 524.755097 
L 320.778833 526.036834 
L 320.778833 527.31857 
L 320.778833 528.600562 
L 320.778833 529.882298 
L 320.778833 531.164035 
L 320.778833 532.445771 
L 320.778833 533.727763 
L 320.778833 535.009499 
L 320.778833 536.291236 
L 320.778833 537.572972 
L 320.778833 538.854964 
L 320.778833 540.1367 
L 320.778833 541.418437 
L 320.778833 542.700173 
L 320.778833 543.982165 
L 320.778833 545.263901 
L 320.778833 546.545638 
L 320.778833 547.827374 
L 320.778833 549.109366 
L 320.778833 550.391102 
L 320.829387 551.672839 
L 320.829387 552.954575 
L 320.829387 554.236567 
L 320.829387 555.518303 
L 320.829387 556.80004 
L 320.829387 558.081776 
L 320.829387 559.363768 
L 320.829387 560.645504 
L 320.829387 561.927241 
L 320.829387 563.209233 
L 320.829387 564.490969 
L 320.829387 565.772705 
L 320.778833 567.054442 
L 320.778833 568.336434 
L 320.778833 569.61817 
L 320.778833 570.899906 
L 320.778833 572.181643 
L 320.778833 573.463635 
L 320.778833 574.745371 
L 320.829387 576.027107 
L 320.829387 577.308844 
L 320.829387 578.590836 
L 320.829387 579.872572 
L 320.829387 581.154308 
L 320.829387 582.436045 
L 320.778833 583.718037 
L 320.778833 584.999773 
L 320.778833 586.281509 
L 320.778833 587.563246 
L 320.778833 588.845238 
L 320.778833 590.126974 
L 320.778833 591.40871 
L 320.778833 592.690447 
L 320.778833 593.972439 
L 320.778833 595.254175 
L 320.778833 596.535911 
L 320.778833 597.817648 
L 320.778833 599.09964 
L 320.778833 600.381376 
L 320.778833 601.663112 
L 320.778833 602.945105 
L 320.778833 604.226841 
L 320.778833 605.508577 
L 320.778833 606.790313 
L 320.778833 608.072306 
L 320.778833 609.354042 
L 320.778833 610.635778 
L 320.778833 611.917514 
L 320.778833 613.199507 
L 320.778833 614.481243 
L 320.778833 615.762979 
L 320.778833 617.044715 
L 320.778833 618.326708 
L 320.778833 619.608444 
L 320.778833 620.89018 
L 320.778833 622.171916 
L 320.778833 623.453909 
L 320.778833 624.735645 
L 320.778833 626.017381 
L 320.778833 627.299117 
L 320.778833 628.58111 
L 320.778833 629.862846 
L 320.778833 631.144582 
L 320.778833 632.426318 
L 320.778833 633.708311 
L 320.778833 634.990047 
L 320.778833 636.271783 
L 320.778833 637.553519 
L 320.778833 638.835512 
L 320.778833 640.117248 
L 320.778833 641.398984 
L 320.778833 642.680976 
L 320.778833 643.962713 
L 320.778833 645.244449 
L 320.778833 646.526185 
L 320.778833 647.808177 
L 320.778833 649.089914 
L 320.778833 650.37165 
L 320.778833 651.653386 
L 320.778833 652.935378 
L 320.778833 654.217115 
L 320.778833 655.498851 
L 320.778833 656.780587 
L 320.778833 658.062579 
L 320.778833 659.344316 
L 320.778833 660.626052 
L 320.778833 661.907788 
L 320.778833 663.18978 
L 320.778833 664.471517 
L 320.778833 665.753253 
L 320.778833 667.034989 
L 320.778833 668.316981 
L 320.778833 669.598718 
L 320.778833 670.880454 
L 320.778833 672.16219 
L 320.778833 673.444182 
L 320.778833 674.725919 
L 320.778833 676.007655 
L 320.778833 677.289391 
L 320.778833 678.571383 
L 320.778833 679.85312 
L 320.778833 681.134856 
L 320.778833 682.416848 
L 320.778833 683.698584 
L 320.778833 684.980321 
L 320.778833 686.262057 
L 320.778833 687.544049 
L 320.778833 688.825785 
L 320.778833 690.107522 
L 320.778833 691.389258 
L 320.778833 692.67125 
L 320.778833 693.952986 
L 320.778833 695.234723 
L 320.778833 696.516459 
L 320.778833 697.798451 
L 320.778833 699.080187 
L 320.778833 700.361924 
L 320.778833 701.64366 
L 320.778833 702.925652 
L 320.778833 704.207388 
L 320.778833 705.489125 
L 320.778833 706.770861 
L 320.778833 708.052853 
L 320.778833 709.334589 
L 320.778833 710.616326 
L 320.778833 711.898062 
L 320.778833 713.180054 
L 320.778833 714.46179 
L 320.778833 715.743527 
L 320.829387 717.025263 
L 320.829387 718.307255 
L 320.879942 719.588991 
L 320.930496 720.870728 
L 320.981051 722.152464 
L 321.031605 723.434456 
L 321.031605 724.716192 
L 321.031605 725.997929 
L 320.981051 727.279921 
L 320.930496 728.561657 
L 320.930496 729.843393 
L 320.879942 731.12513 
L 320.879942 732.407122 
L 320.829387 733.688858 
L 320.829387 734.970594 
L 320.829387 736.252331 
L 320.829387 737.534323 
L 320.829387 738.816059 
L 320.829387 740.097795 
L 320.829387 741.379532 
L 320.829387 742.661524 
L 320.829387 743.94326 
L 320.829387 745.224996 
L 320.778833 746.506733 
L 320.778833 747.788725 
L 320.778833 749.070461 
L 320.778833 750.352197 
L 320.778833 751.633934 
L 320.778833 752.915926 
L 320.778833 754.197662 
L 320.778833 755.479398 
L 320.728279 756.761135 
L 320.728279 758.043127 
L 320.728279 759.324863 
L 320.677724 760.606599 
L 320.62717 761.888336 
L 320.526061 763.170328 
L 320.374398 764.452064 
L 320.172181 765.7338 
L 319.969963 767.015793 
L 319.8183 768.297529 
L 319.767746 769.579265 
L 319.8183 770.861001 
L 319.969963 772.142994 
L 320.172181 773.42473 
L 320.374398 774.706466 
L 320.576616 775.988202 
L 320.677724 777.270195 
L 320.728279 778.551931 
L 320.778833 779.833667 
L 320.778833 781.115403 
L 320.778833 782.397396 
L 320.778833 783.679132 
L 320.778833 784.960868 
z
" clip-path="url(#p3bdc5b7984)" style="fill: #8856a7; fill-opacity: 0.45"/>
   </g>
   <g id="PolyCollection_2">
    <path d="M 320.778833 784.960868 
L 320.778833 784.960868 
L 320.778833 783.679132 
L 320.778833 782.397396 
L 320.778833 781.115403 
L 320.778833 779.833667 
L 320.778833 778.551931 
L 320.778833 777.270195 
L 320.778833 775.988202 
L 320.778833 774.706466 
L 320.778833 773.42473 
L 320.778833 772.142994 
L 320.778833 770.861001 
L 320.778833 769.579265 
L 320.778833 768.297529 
L 320.778833 767.015793 
L 320.778833 765.7338 
L 320.778833 764.452064 
L 320.778833 763.170328 
L 320.778833 761.888336 
L 320.778833 760.606599 
L 320.778833 759.324863 
L 320.778833 758.043127 
L 320.778833 756.761135 
L 320.778833 755.479398 
L 320.778833 754.197662 
L 320.778833 752.915926 
L 320.778833 751.633934 
L 320.778833 750.352197 
L 320.778833 749.070461 
L 320.778833 747.788725 
L 320.778833 746.506733 
L 320.778833 745.224996 
L 320.778833 743.94326 
L 320.778833 742.661524 
L 320.778833 741.379532 
L 320.778833 740.097795 
L 320.778833 738.816059 
L 320.778833 737.534323 
L 320.778833 736.252331 
L 320.778833 734.970594 
L 320.778833 733.688858 
L 320.778833 732.407122 
L 320.778833 731.12513 
L 320.778833 729.843393 
L 320.778833 728.561657 
L 320.778833 727.279921 
L 320.778833 725.997929 
L 320.778833 724.716192 
L 320.778833 723.434456 
L 320.778833 722.152464 
L 320.778833 720.870728 
L 320.778833 719.588991 
L 320.778833 718.307255 
L 320.778833 717.025263 
L 320.778833 715.743527 
L 320.778833 714.46179 
L 320.778833 713.180054 
L 320.778833 711.898062 
L 320.778833 710.616326 
L 320.778833 709.334589 
L 320.778833 708.052853 
L 320.778833 706.770861 
L 320.778833 705.489125 
L 320.778833 704.207388 
L 320.778833 702.925652 
L 320.778833 701.64366 
L 320.778833 700.361924 
L 320.778833 699.080187 
L 320.778833 697.798451 
L 320.778833 696.516459 
L 320.778833 695.234723 
L 320.778833 693.952986 
L 320.778833 692.67125 
L 320.778833 691.389258 
L 320.778833 690.107522 
L 320.778833 688.825785 
L 320.778833 687.544049 
L 320.778833 686.262057 
L 320.778833 684.980321 
L 320.778833 683.698584 
L 320.778833 682.416848 
L 320.778833 681.134856 
L 320.778833 679.85312 
L 320.778833 678.571383 
L 320.778833 677.289391 
L 320.778833 676.007655 
L 320.778833 674.725919 
L 320.778833 673.444182 
L 320.778833 672.16219 
L 320.778833 670.880454 
L 320.778833 669.598718 
L 320.778833 668.316981 
L 320.778833 667.034989 
L 320.778833 665.753253 
L 320.778833 664.471517 
L 320.778833 663.18978 
L 320.778833 661.907788 
L 320.778833 660.626052 
L 320.778833 659.344316 
L 320.778833 658.062579 
L 320.778833 656.780587 
L 320.778833 655.498851 
L 320.778833 654.217115 
L 320.778833 652.935378 
L 320.778833 651.653386 
L 320.778833 650.37165 
L 320.778833 649.089914 
L 320.778833 647.808177 
L 320.778833 646.526185 
L 320.778833 645.244449 
L 320.778833 643.962713 
L 320.778833 642.680976 
L 320.778833 641.398984 
L 320.778833 640.117248 
L 320.778833 638.835512 
L 320.778833 637.553519 
L 320.778833 636.271783 
L 320.778833 634.990047 
L 320.778833 633.708311 
L 320.778833 632.426318 
L 320.778833 631.144582 
L 320.778833 629.862846 
L 320.778833 628.58111 
L 320.778833 627.299117 
L 320.778833 626.017381 
L 320.778833 624.735645 
L 320.778833 623.453909 
L 320.778833 622.171916 
L 320.778833 620.89018 
L 320.778833 619.608444 
L 320.778833 618.326708 
L 320.778833 617.044715 
L 320.778833 615.762979 
L 320.778833 614.481243 
L 320.778833 613.199507 
L 320.778833 611.917514 
L 320.778833 610.635778 
L 320.778833 609.354042 
L 320.778833 608.072306 
L 320.778833 606.790313 
L 320.778833 605.508577 
L 320.778833 604.226841 
L 320.778833 602.945105 
L 320.778833 601.663112 
L 320.778833 600.381376 
L 320.778833 599.09964 
L 320.778833 597.817648 
L 320.778833 596.535911 
L 320.778833 595.254175 
L 320.778833 593.972439 
L 320.778833 592.690447 
L 320.778833 591.40871 
L 320.778833 590.126974 
L 320.778833 588.845238 
L 320.778833 587.563246 
L 320.778833 586.281509 
L 320.778833 584.999773 
L 320.778833 583.718037 
L 320.778833 582.436045 
L 320.778833 581.154308 
L 320.778833 579.872572 
L 320.778833 578.590836 
L 320.778833 577.308844 
L 320.778833 576.027107 
L 320.778833 574.745371 
L 320.778833 573.463635 
L 320.778833 572.181643 
L 320.778833 570.899906 
L 320.778833 569.61817 
L 320.778833 568.336434 
L 320.778833 567.054442 
L 320.778833 565.772705 
L 320.778833 564.490969 
L 320.778833 563.209233 
L 320.778833 561.927241 
L 320.778833 560.645504 
L 320.778833 559.363768 
L 320.778833 558.081776 
L 320.778833 556.80004 
L 320.778833 555.518303 
L 320.778833 554.236567 
L 320.778833 552.954575 
L 320.778833 551.672839 
L 320.778833 550.391102 
L 320.778833 549.109366 
L 320.778833 547.827374 
L 320.778833 546.545638 
L 320.778833 545.263901 
L 320.778833 543.982165 
L 320.778833 542.700173 
L 320.778833 541.418437 
L 320.778833 540.1367 
L 320.778833 538.854964 
L 320.778833 537.572972 
L 320.778833 536.291236 
L 320.778833 535.009499 
L 320.778833 533.727763 
L 320.778833 532.445771 
L 320.778833 531.164035 
L 320.778833 529.882298 
L 320.778833 528.600562 
L 320.778833 527.31857 
L 320.778833 526.036834 
L 320.778833 524.755097 
L 320.778833 523.473361 
L 320.778833 522.191369 
L 320.778833 520.909633 
L 320.778833 519.627896 
L 320.778833 518.34616 
L 320.778833 517.064168 
L 320.778833 515.782432 
L 320.778833 514.500695 
L 320.778833 513.218703 
L 320.778833 511.936967 
L 320.778833 510.655231 
L 320.778833 509.373494 
L 320.778833 508.091502 
L 320.778833 506.809766 
L 320.778833 505.52803 
L 320.778833 504.246293 
L 320.778833 502.964301 
L 320.778833 501.682565 
L 320.778833 500.400829 
L 320.778833 499.119092 
L 320.778833 497.8371 
L 320.778833 496.555364 
L 320.778833 495.273628 
L 320.778833 493.991891 
L 320.778833 492.709899 
L 320.778833 491.428163 
L 320.778833 490.146427 
L 320.778833 488.86469 
L 320.778833 487.582698 
L 320.778833 486.300962 
L 320.778833 485.019226 
L 320.778833 483.737489 
L 320.778833 482.455497 
L 320.778833 481.173761 
L 320.778833 479.892025 
L 320.778833 478.610288 
L 320.778833 477.328296 
L 320.778833 476.04656 
L 320.778833 474.764824 
L 320.778833 473.482831 
L 320.778833 472.201095 
L 320.778833 470.919359 
L 320.778833 469.637623 
L 320.778833 468.35563 
L 320.778833 467.073894 
L 320.778833 465.792158 
L 320.778833 464.510422 
L 320.778833 463.228429 
L 320.778833 461.946693 
L 320.778833 460.664957 
L 320.778833 459.383221 
L 320.778833 458.101228 
L 320.778833 456.819492 
L 320.778833 455.537756 
L 320.778833 454.25602 
L 320.778833 452.974027 
L 320.778833 451.692291 
L 320.778833 450.410555 
L 320.778833 449.128819 
L 320.778833 447.846826 
L 320.778833 446.56509 
L 320.778833 445.283354 
L 320.778833 444.001618 
L 320.778833 442.719625 
L 320.778833 441.437889 
L 320.778833 440.156153 
L 320.778833 438.874417 
L 320.778833 437.592424 
L 320.778833 436.310688 
L 320.778833 435.028952 
L 320.778833 433.74696 
L 320.778833 432.465223 
L 320.778833 431.183487 
L 320.778833 429.901751 
L 320.778833 428.619759 
L 320.778833 427.338022 
L 320.778833 426.056286 
L 320.778833 424.77455 
L 320.778833 423.492558 
L 320.778833 422.210821 
L 320.778833 420.929085 
L 320.778833 419.647349 
L 320.778833 418.365357 
L 320.778833 417.08362 
L 320.778833 415.801884 
L 320.778833 414.520148 
L 320.778833 413.238156 
L 320.778833 411.956419 
L 320.778833 410.674683 
L 320.778833 409.392947 
L 320.778833 408.110955 
L 320.778833 406.829218 
L 320.778833 405.547482 
L 320.778833 404.265746 
L 320.778833 402.983754 
L 320.778833 401.702017 
L 320.778833 400.420281 
L 320.778833 399.138545 
L 320.778833 397.856553 
L 320.778833 396.574816 
L 320.778833 395.29308 
L 320.778833 394.011088 
L 320.778833 392.729352 
L 320.778833 391.447615 
L 320.778833 390.165879 
L 320.778833 388.883887 
L 320.778833 387.602151 
L 320.778833 386.320414 
L 320.778833 385.038678 
L 320.778833 383.756686 
L 320.778833 382.47495 
L 320.778833 381.193213 
L 320.778833 379.911477 
L 320.778833 378.629485 
L 320.778833 377.347749 
L 320.778833 376.066012 
L 320.778833 374.784276 
L 320.778833 373.502284 
L 320.778833 372.220548 
L 320.778833 370.938811 
L 320.778833 369.657075 
L 320.778833 368.375083 
L 320.778833 367.093347 
L 320.778833 365.81161 
L 320.778833 364.529874 
L 320.778833 363.247882 
L 320.778833 361.966146 
L 320.778833 360.684409 
L 320.778833 359.402673 
L 320.778833 358.120681 
L 320.778833 356.838945 
L 320.778833 355.557208 
L 320.778833 354.275472 
L 320.778833 352.99348 
L 320.778833 351.711744 
L 320.778833 350.430007 
L 320.778833 349.148015 
L 320.778833 347.866279 
L 320.778833 346.584543 
L 320.778833 345.302806 
L 320.778833 344.020814 
L 320.778833 342.739078 
L 320.778833 341.457342 
L 320.778833 340.175605 
L 320.778833 338.893613 
L 320.778833 337.611877 
L 320.778833 336.330141 
L 320.778833 335.048404 
L 320.778833 333.766412 
L 320.778833 332.484676 
L 320.778833 331.20294 
L 320.778833 329.921203 
L 320.778833 328.639211 
L 320.778833 327.357475 
L 320.778833 326.075739 
L 320.778833 324.794002 
L 320.778833 323.51201 
L 320.778833 322.230274 
L 320.778833 320.948538 
L 320.778833 319.666801 
L 320.778833 318.384809 
L 320.778833 317.103073 
L 320.778833 315.821337 
L 320.778833 314.5396 
L 320.778833 313.257608 
L 320.778833 311.975872 
L 320.778833 310.694136 
L 320.778833 309.412143 
L 320.778833 308.130407 
L 320.778833 306.848671 
L 320.778833 305.566935 
L 320.778833 304.284942 
L 320.778833 303.003206 
L 320.778833 301.72147 
L 320.778833 300.439734 
L 320.778833 299.157741 
L 320.778833 297.876005 
L 320.778833 296.594269 
L 320.778833 295.312533 
L 320.778833 294.03054 
L 320.778833 292.748804 
L 320.778833 291.467068 
L 320.778833 290.185332 
L 320.778833 288.903339 
L 320.778833 287.621603 
L 320.778833 286.339867 
L 320.778833 285.058131 
L 320.778833 283.776138 
L 320.778833 282.494402 
L 320.778833 281.212666 
L 320.778833 279.93093 
L 320.778833 278.648937 
L 320.778833 277.367201 
L 320.778833 276.085465 
L 320.778833 274.803729 
L 320.778833 273.521736 
L 323.913203 273.521736 
L 323.913203 273.521736 
L 324.11542 274.803729 
L 323.812094 276.085465 
L 323.559323 277.367201 
L 323.862649 278.648937 
L 325.177062 279.93093 
L 327.704779 281.212666 
L 331.19303 282.494402 
L 335.085715 283.776138 
L 338.270639 285.058131 
L 339.483944 286.339867 
L 337.512324 287.621603 
L 332.052454 288.903339 
L 323.660431 290.185332 
L 314.105658 291.467068 
L 305.511418 292.748804 
L 300.000994 294.03054 
L 298.939353 295.312533 
L 302.528712 296.594269 
L 310.06131 297.876005 
L 320.27329 299.157741 
L 331.648019 300.439734 
L 342.567759 301.72147 
L 351.313662 303.003206 
L 356.621869 304.284942 
L 357.986837 305.566935 
L 355.863554 306.848671 
L 351.667543 308.130407 
L 347.370423 309.412143 
L 344.387716 310.694136 
L 343.27552 311.975872 
L 343.781064 313.257608 
L 344.893259 314.5396 
L 345.702129 315.821337 
L 345.853792 317.103073 
L 345.499912 318.384809 
L 345.146031 319.666801 
L 344.994368 320.948538 
L 345.095477 322.230274 
L 345.398803 323.51201 
L 345.752684 324.794002 
L 346.157118 326.075739 
L 346.258227 327.357475 
L 345.348249 328.639211 
L 342.92164 329.921203 
L 338.725628 331.20294 
L 333.316313 332.484676 
L 327.957551 333.766412 
L 324.165975 335.048404 
L 323.154888 336.330141 
L 325.227616 337.611877 
L 329.625845 338.893613 
L 334.782389 340.175605 
L 338.725628 341.457342 
L 339.483944 342.739078 
L 335.591259 344.020814 
L 326.440921 345.302806 
L 312.892354 346.584543 
L 297.523831 347.866279 
L 284.27859 349.148015 
L 276.8471 350.430007 
L 277.099872 351.711744 
L 284.126927 352.99348 
L 295.046667 354.275472 
L 306.421397 355.557208 
L 315.824506 356.838945 
L 322.143801 358.120681 
L 325.530942 359.402673 
L 326.693692 360.684409 
L 326.440921 361.966146 
L 325.379279 363.247882 
L 324.064866 364.529874 
L 322.801007 365.81161 
L 321.840475 367.093347 
L 321.233822 368.375083 
L 320.981051 369.657075 
L 320.930496 370.938811 
L 321.031605 372.220548 
L 321.183268 373.502284 
L 321.43604 374.784276 
L 321.739366 376.066012 
L 321.992138 377.347749 
L 322.244909 378.629485 
L 322.548235 379.911477 
L 323.003225 381.193213 
L 323.710986 382.47495 
L 324.823181 383.756686 
L 326.390366 385.038678 
L 328.159769 386.320414 
L 329.878617 387.602151 
L 331.142475 388.883887 
L 331.648019 390.165879 
L 331.19303 391.447615 
L 330.080834 392.729352 
L 328.564203 394.011088 
L 327.047573 395.29308 
L 325.73316 396.574816 
L 324.772627 397.856553 
L 324.11542 399.138545 
L 323.862649 400.420281 
L 323.963757 401.702017 
L 324.418747 402.983754 
L 325.075953 404.265746 
L 325.783714 405.547482 
L 326.289258 406.829218 
L 326.542029 408.110955 
L 326.643138 409.392947 
L 326.794801 410.674683 
L 327.24979 411.956419 
L 328.008106 413.238156 
L 329.069747 414.520148 
L 330.080834 415.801884 
L 330.839149 417.08362 
L 331.243584 418.365357 
L 331.445802 419.647349 
L 331.698573 420.929085 
L 332.254671 422.210821 
L 333.16465 423.492558 
L 334.074628 424.77455 
L 334.630726 426.056286 
L 334.377954 427.338022 
L 333.215204 428.619759 
L 331.445802 429.901751 
L 329.474182 431.183487 
L 327.755334 432.465223 
L 326.491475 433.74696 
L 325.935377 435.028952 
L 325.935377 436.310688 
L 326.440921 437.592424 
L 327.148682 438.874417 
L 327.906997 440.156153 
L 328.564203 441.437889 
L 329.069747 442.719625 
L 329.575291 444.001618 
L 329.929171 445.283354 
L 330.03028 446.56509 
L 329.777508 447.846826 
L 328.968638 449.128819 
L 327.957551 450.410555 
L 327.24979 451.692291 
L 327.856443 452.974027 
L 331.041367 454.25602 
L 338.017867 455.537756 
L 349.291488 456.819492 
L 364.053359 458.101228 
L 379.573546 459.383221 
L 391.908808 460.664957 
L 397.166461 461.946693 
L 393.728765 463.228429 
L 382.809024 464.510422 
L 367.89549 465.792158 
L 352.981956 467.073894 
L 340.899466 468.35563 
L 332.659106 469.637623 
L 327.704779 470.919359 
L 325.075953 472.201095 
L 323.710986 473.482831 
L 322.95267 474.764824 
L 322.447127 476.04656 
L 322.093246 477.328296 
L 321.840475 478.610288 
L 321.688811 479.892025 
L 321.688811 481.173761 
L 321.78992 482.455497 
L 321.891029 483.737489 
L 321.992138 485.019226 
L 321.992138 486.300962 
L 321.891029 487.582698 
L 321.688811 488.86469 
L 321.486594 490.146427 
L 321.233822 491.428163 
L 321.082159 492.709899 
L 320.930496 493.991891 
L 320.829387 495.273628 
L 320.829387 496.555364 
L 320.778833 497.8371 
L 320.778833 499.119092 
L 320.778833 500.400829 
L 320.778833 501.682565 
L 320.778833 502.964301 
L 320.778833 504.246293 
L 320.778833 505.52803 
L 320.778833 506.809766 
L 320.778833 508.091502 
L 320.778833 509.373494 
L 320.778833 510.655231 
L 320.778833 511.936967 
L 320.778833 513.218703 
L 320.778833 514.500695 
L 320.778833 515.782432 
L 320.778833 517.064168 
L 320.778833 518.34616 
L 320.778833 519.627896 
L 320.778833 520.909633 
L 320.778833 522.191369 
L 320.778833 523.473361 
L 320.778833 524.755097 
L 320.778833 526.036834 
L 320.778833 527.31857 
L 320.778833 528.600562 
L 320.778833 529.882298 
L 320.778833 531.164035 
L 320.778833 532.445771 
L 320.778833 533.727763 
L 320.778833 535.009499 
L 320.778833 536.291236 
L 320.778833 537.572972 
L 320.778833 538.854964 
L 320.778833 540.1367 
L 320.778833 541.418437 
L 320.778833 542.700173 
L 320.778833 543.982165 
L 320.778833 545.263901 
L 320.778833 546.545638 
L 320.778833 547.827374 
L 320.778833 549.109366 
L 320.778833 550.391102 
L 320.778833 551.672839 
L 320.829387 552.954575 
L 320.829387 554.236567 
L 320.829387 555.518303 
L 320.829387 556.80004 
L 320.829387 558.081776 
L 320.829387 559.363768 
L 320.829387 560.645504 
L 320.829387 561.927241 
L 320.829387 563.209233 
L 320.829387 564.490969 
L 320.778833 565.772705 
L 320.778833 567.054442 
L 320.778833 568.336434 
L 320.778833 569.61817 
L 320.778833 570.899906 
L 320.778833 572.181643 
L 320.778833 573.463635 
L 320.778833 574.745371 
L 320.778833 576.027107 
L 320.778833 577.308844 
L 320.778833 578.590836 
L 320.778833 579.872572 
L 320.778833 581.154308 
L 320.778833 582.436045 
L 320.778833 583.718037 
L 320.778833 584.999773 
L 320.778833 586.281509 
L 320.778833 587.563246 
L 320.778833 588.845238 
L 320.778833 590.126974 
L 320.778833 591.40871 
L 320.778833 592.690447 
L 320.778833 593.972439 
L 320.778833 595.254175 
L 320.778833 596.535911 
L 320.778833 597.817648 
L 320.778833 599.09964 
L 320.778833 600.381376 
L 320.778833 601.663112 
L 320.778833 602.945105 
L 320.778833 604.226841 
L 320.778833 605.508577 
L 320.778833 606.790313 
L 320.778833 608.072306 
L 320.778833 609.354042 
L 320.778833 610.635778 
L 320.778833 611.917514 
L 320.778833 613.199507 
L 320.778833 614.481243 
L 320.778833 615.762979 
L 320.778833 617.044715 
L 320.778833 618.326708 
L 320.778833 619.608444 
L 320.778833 620.89018 
L 320.778833 622.171916 
L 320.778833 623.453909 
L 320.778833 624.735645 
L 320.778833 626.017381 
L 320.778833 627.299117 
L 320.778833 628.58111 
L 320.778833 629.862846 
L 320.778833 631.144582 
L 320.778833 632.426318 
L 320.778833 633.708311 
L 320.778833 634.990047 
L 320.778833 636.271783 
L 320.778833 637.553519 
L 320.778833 638.835512 
L 320.778833 640.117248 
L 320.778833 641.398984 
L 320.778833 642.680976 
L 320.778833 643.962713 
L 320.778833 645.244449 
L 320.778833 646.526185 
L 320.778833 647.808177 
L 320.778833 649.089914 
L 320.778833 650.37165 
L 320.778833 651.653386 
L 320.778833 652.935378 
L 320.778833 654.217115 
L 320.778833 655.498851 
L 320.778833 656.780587 
L 320.778833 658.062579 
L 320.778833 659.344316 
L 320.778833 660.626052 
L 320.778833 661.907788 
L 320.778833 663.18978 
L 320.778833 664.471517 
L 320.778833 665.753253 
L 320.778833 667.034989 
L 320.778833 668.316981 
L 320.778833 669.598718 
L 320.778833 670.880454 
L 320.778833 672.16219 
L 320.778833 673.444182 
L 320.778833 674.725919 
L 320.778833 676.007655 
L 320.778833 677.289391 
L 320.778833 678.571383 
L 320.778833 679.85312 
L 320.778833 681.134856 
L 320.778833 682.416848 
L 320.778833 683.698584 
L 320.778833 684.980321 
L 320.778833 686.262057 
L 320.778833 687.544049 
L 320.778833 688.825785 
L 320.778833 690.107522 
L 320.778833 691.389258 
L 320.778833 692.67125 
L 320.778833 693.952986 
L 320.778833 695.234723 
L 320.778833 696.516459 
L 320.778833 697.798451 
L 320.778833 699.080187 
L 320.778833 700.361924 
L 320.778833 701.64366 
L 320.778833 702.925652 
L 320.778833 704.207388 
L 320.778833 705.489125 
L 320.778833 706.770861 
L 320.778833 708.052853 
L 320.778833 709.334589 
L 320.778833 710.616326 
L 320.778833 711.898062 
L 320.778833 713.180054 
L 320.778833 714.46179 
L 320.778833 715.743527 
L 320.829387 717.025263 
L 320.829387 718.307255 
L 320.879942 719.588991 
L 320.930496 720.870728 
L 320.930496 722.152464 
L 320.981051 723.434456 
L 320.981051 724.716192 
L 320.981051 725.997929 
L 320.930496 727.279921 
L 320.930496 728.561657 
L 320.879942 729.843393 
L 320.829387 731.12513 
L 320.829387 732.407122 
L 320.829387 733.688858 
L 320.829387 734.970594 
L 320.829387 736.252331 
L 320.829387 737.534323 
L 320.829387 738.816059 
L 320.829387 740.097795 
L 320.829387 741.379532 
L 320.829387 742.661524 
L 320.829387 743.94326 
L 320.778833 745.224996 
L 320.778833 746.506733 
L 320.778833 747.788725 
L 320.778833 749.070461 
L 320.778833 750.352197 
L 320.778833 751.633934 
L 320.778833 752.915926 
L 320.778833 754.197662 
L 320.778833 755.479398 
L 320.728279 756.761135 
L 320.728279 758.043127 
L 320.728279 759.324863 
L 320.728279 760.606599 
L 320.677724 761.888336 
L 320.576616 763.170328 
L 320.424953 764.452064 
L 320.27329 765.7338 
L 320.121627 767.015793 
L 319.969963 768.297529 
L 319.969963 769.579265 
L 320.020518 770.861001 
L 320.172181 772.142994 
L 320.323844 773.42473 
L 320.475507 774.706466 
L 320.62717 775.988202 
L 320.677724 777.270195 
L 320.728279 778.551931 
L 320.778833 779.833667 
L 320.778833 781.115403 
L 320.778833 782.397396 
L 320.778833 783.679132 
L 320.778833 784.960868 
z
" clip-path="url(#p3bdc5b7984)" style="fill: #8856a7; fill-opacity: 0.2"/>
   </g>
   <g id="matplotlib.axis_1">
    <g id="xtick_1">
     <g id="line2d_1">
      <defs>
       <path id="m636d9a3f38" d="M 0 0 
L 0 3.5 
" style="stroke: #000000; stroke-width: 0.8"/>
      </defs>
      <g>
       <use xlink:href="#m636d9a3f38" x="118.561421" y="528.28" style="stroke: #000000; stroke-width: 0.8"/>
      </g>
     </g>
     <g id="text_1">
      <!-- −0.04 -->
      <g transform="translate(95.577437 546.677656) scale(0.15 -0.15)">
       <defs>
        <path id="DejaVuSerif-2212" d="M 678 2259 
L 4684 2259 
L 4684 1753 
L 678 1753 
L 678 2259 
z
" transform="scale(0.015625)"/>
        <path id="DejaVuSerif-30" d="M 2034 219 
Q 2513 219 2750 744 
Q 2988 1269 2988 2328 
Q 2988 3391 2750 3916 
Q 2513 4441 2034 4441 
Q 1556 4441 1318 3916 
Q 1081 3391 1081 2328 
Q 1081 1269 1318 744 
Q 1556 219 2034 219 
z
M 2034 -91 
Q 1275 -91 848 546 
Q 422 1184 422 2328 
Q 422 3475 848 4112 
Q 1275 4750 2034 4750 
Q 2797 4750 3222 4112 
Q 3647 3475 3647 2328 
Q 3647 1184 3222 546 
Q 2797 -91 2034 -91 
z
" transform="scale(0.015625)"/>
        <path id="DejaVuSerif-2e" d="M 603 325 
Q 603 500 722 622 
Q 841 744 1019 744 
Q 1191 744 1312 622 
Q 1434 500 1434 325 
Q 1434 153 1312 31 
Q 1191 -91 1019 -91 
Q 841 -91 722 29 
Q 603 150 603 325 
z
" transform="scale(0.015625)"/>
        <path id="DejaVuSerif-34" d="M 2234 1581 
L 2234 4063 
L 641 1581 
L 2234 1581 
z
M 3609 0 
L 1484 0 
L 1484 331 
L 2234 331 
L 2234 1247 
L 197 1247 
L 197 1588 
L 2241 4750 
L 2859 4750 
L 2859 1581 
L 3750 1581 
L 3750 1247 
L 2859 1247 
L 2859 331 
L 3609 331 
L 3609 0 
z
" transform="scale(0.015625)"/>
       </defs>
       <use xlink:href="#DejaVuSerif-2212"/>
       <use xlink:href="#DejaVuSerif-30" x="83.789062"/>
       <use xlink:href="#DejaVuSerif-2e" x="147.412109"/>
       <use xlink:href="#DejaVuSerif-30" x="179.199219"/>
       <use xlink:href="#DejaVuSerif-34" x="242.822266"/>
      </g>
     </g>
    </g>
    <g id="xtick_2">
     <g id="line2d_2">
      <g>
       <use xlink:href="#m636d9a3f38" x="169.115774" y="528.28" style="stroke: #000000; stroke-width: 0.8"/>
      </g>
     </g>
     <g id="text_2">
      <!-- −0.03 -->
      <g transform="translate(146.13179 546.677656) scale(0.15 -0.15)">
       <defs>
        <path id="DejaVuSerif-33" d="M 622 4469 
Q 988 4606 1323 4678 
Q 1659 4750 1953 4750 
Q 2638 4750 3022 4454 
Q 3406 4159 3406 3634 
Q 3406 3213 3140 2930 
Q 2875 2647 2388 2547 
Q 2963 2466 3280 2130 
Q 3597 1794 3597 1259 
Q 3597 606 3158 257 
Q 2719 -91 1894 -91 
Q 1528 -91 1179 -12 
Q 831 66 488 225 
L 488 1131 
L 838 1131 
Q 869 681 1141 450 
Q 1413 219 1906 219 
Q 2384 219 2661 495 
Q 2938 772 2938 1253 
Q 2938 1803 2653 2086 
Q 2369 2369 1819 2369 
L 1522 2369 
L 1522 2688 
L 1678 2688 
Q 2225 2688 2498 2914 
Q 2772 3141 2772 3597 
Q 2772 4006 2547 4223 
Q 2322 4441 1900 4441 
Q 1478 4441 1245 4241 
Q 1013 4041 972 3647 
L 622 3647 
L 622 4469 
z
" transform="scale(0.015625)"/>
       </defs>
       <use xlink:href="#DejaVuSerif-2212"/>
       <use xlink:href="#DejaVuSerif-30" x="83.789062"/>
       <use xlink:href="#DejaVuSerif-2e" x="147.412109"/>
       <use xlink:href="#DejaVuSerif-30" x="179.199219"/>
       <use xlink:href="#DejaVuSerif-33" x="242.822266"/>
      </g>
     </g>
    </g>
    <g id="xtick_3">
     <g id="line2d_3">
      <g>
       <use xlink:href="#m636d9a3f38" x="219.670127" y="528.28" style="stroke: #000000; stroke-width: 0.8"/>
      </g>
     </g>
     <g id="text_3">
      <!-- −0.02 -->
      <g transform="translate(196.686143 546.677656) scale(0.15 -0.15)">
       <defs>
        <path id="DejaVuSerif-32" d="M 819 3553 
L 469 3553 
L 469 4384 
Q 803 4563 1142 4656 
Q 1481 4750 1806 4750 
Q 2534 4750 2956 4397 
Q 3378 4044 3378 3438 
Q 3378 2753 2422 1800 
Q 2347 1728 2309 1691 
L 1131 513 
L 3078 513 
L 3078 1088 
L 3444 1088 
L 3444 0 
L 434 0 
L 434 341 
L 1850 1753 
Q 2319 2222 2519 2614 
Q 2719 3006 2719 3438 
Q 2719 3909 2473 4175 
Q 2228 4441 1797 4441 
Q 1350 4441 1106 4219 
Q 863 3997 819 3553 
z
" transform="scale(0.015625)"/>
       </defs>
       <use xlink:href="#DejaVuSerif-2212"/>
       <use xlink:href="#DejaVuSerif-30" x="83.789062"/>
       <use xlink:href="#DejaVuSerif-2e" x="147.412109"/>
       <use xlink:href="#DejaVuSerif-30" x="179.199219"/>
       <use xlink:href="#DejaVuSerif-32" x="242.822266"/>
      </g>
     </g>
    </g>
    <g id="xtick_4">
     <g id="line2d_4">
      <g>
       <use xlink:href="#m636d9a3f38" x="270.22448" y="528.28" style="stroke: #000000; stroke-width: 0.8"/>
      </g>
     </g>
     <g id="text_4">
      <!-- −0.01 -->
      <g transform="translate(247.240496 546.677656) scale(0.15 -0.15)">
       <defs>
        <path id="DejaVuSerif-31" d="M 909 0 
L 909 331 
L 1722 331 
L 1722 4213 
L 781 3603 
L 781 4013 
L 1919 4750 
L 2350 4750 
L 2350 331 
L 3163 331 
L 3163 0 
L 909 0 
z
" transform="scale(0.015625)"/>
       </defs>
       <use xlink:href="#DejaVuSerif-2212"/>
       <use xlink:href="#DejaVuSerif-30" x="83.789062"/>
       <use xlink:href="#DejaVuSerif-2e" x="147.412109"/>
       <use xlink:href="#DejaVuSerif-30" x="179.199219"/>
       <use xlink:href="#DejaVuSerif-31" x="242.822266"/>
      </g>
     </g>
    </g>
    <g id="xtick_5">
     <g id="line2d_5">
      <g>
       <use xlink:href="#m636d9a3f38" x="320.778833" y="528.28" style="stroke: #000000; stroke-width: 0.8"/>
      </g>
     </g>
     <g id="text_5">
      <!-- 0.00 -->
      <g transform="translate(304.079614 546.677656) scale(0.15 -0.15)">
       <use xlink:href="#DejaVuSerif-30"/>
       <use xlink:href="#DejaVuSerif-2e" x="63.623047"/>
       <use xlink:href="#DejaVuSerif-30" x="95.410156"/>
       <use xlink:href="#DejaVuSerif-30" x="159.033203"/>
      </g>
     </g>
    </g>
    <g id="xtick_6">
     <g id="line2d_6">
      <g>
       <use xlink:href="#m636d9a3f38" x="371.333186" y="528.28" style="stroke: #000000; stroke-width: 0.8"/>
      </g>
     </g>
     <g id="text_6">
      <!-- 0.01 -->
      <g transform="translate(354.633967 546.677656) scale(0.15 -0.15)">
       <use xlink:href="#DejaVuSerif-30"/>
       <use xlink:href="#DejaVuSerif-2e" x="63.623047"/>
       <use xlink:href="#DejaVuSerif-30" x="95.410156"/>
       <use xlink:href="#DejaVuSerif-31" x="159.033203"/>
      </g>
     </g>
    </g>
    <g id="text_7">
     <!-- -COHP -->
     <g transform="translate(232.229125 562.915313) scale(0.12 -0.12)">
      <defs>
       <path id="DejaVuSerif-2d" d="M 281 1959 
L 1881 1959 
L 1881 1472 
L 281 1472 
L 281 1959 
z
" transform="scale(0.015625)"/>
       <path id="DejaVuSerif-43" d="M 4513 1234 
Q 4306 581 3820 245 
Q 3334 -91 2591 -91 
Q 2134 -91 1743 65 
Q 1353 222 1050 525 
Q 700 875 529 1320 
Q 359 1766 359 2328 
Q 359 3416 987 4083 
Q 1616 4750 2644 4750 
Q 3025 4750 3456 4650 
Q 3888 4550 4384 4347 
L 4384 3272 
L 4031 3272 
Q 3916 3859 3567 4137 
Q 3219 4416 2591 4416 
Q 1844 4416 1459 3886 
Q 1075 3356 1075 2328 
Q 1075 1303 1459 773 
Q 1844 244 2591 244 
Q 3113 244 3450 492 
Q 3788 741 3938 1234 
L 4513 1234 
z
" transform="scale(0.015625)"/>
       <path id="DejaVuSerif-4f" d="M 2625 244 
Q 3391 244 3781 770 
Q 4172 1297 4172 2328 
Q 4172 3363 3781 3889 
Q 3391 4416 2625 4416 
Q 1856 4416 1465 3889 
Q 1075 3363 1075 2328 
Q 1075 1297 1465 770 
Q 1856 244 2625 244 
z
M 2625 -91 
Q 2150 -91 1751 65 
Q 1353 222 1050 525 
Q 700 875 529 1319 
Q 359 1763 359 2328 
Q 359 2894 529 3339 
Q 700 3784 1050 4134 
Q 1356 4441 1750 4595 
Q 2144 4750 2625 4750 
Q 3641 4750 4266 4084 
Q 4891 3419 4891 2328 
Q 4891 1769 4719 1320 
Q 4547 872 4197 525 
Q 3891 219 3497 64 
Q 3103 -91 2625 -91 
z
" transform="scale(0.015625)"/>
       <path id="DejaVuSerif-48" d="M 353 0 
L 353 331 
L 947 331 
L 947 4331 
L 353 4331 
L 353 4666 
L 2175 4666 
L 2175 4331 
L 1581 4331 
L 1581 2719 
L 4000 2719 
L 4000 4331 
L 3406 4331 
L 3406 4666 
L 5228 4666 
L 5228 4331 
L 4634 4331 
L 4634 331 
L 5228 331 
L 5228 0 
L 3406 0 
L 3406 331 
L 4000 331 
L 4000 2338 
L 1581 2338 
L 1581 331 
L 2175 331 
L 2175 0 
L 353 0 
z
" transform="scale(0.015625)"/>
       <path id="DejaVuSerif-50" d="M 1581 2375 
L 2406 2375 
Q 2872 2375 3115 2626 
Q 3359 2878 3359 3353 
Q 3359 3831 3115 4081 
Q 2872 4331 2406 4331 
L 1581 4331 
L 1581 2375 
z
M 353 0 
L 353 331 
L 947 331 
L 947 4331 
L 353 4331 
L 353 4666 
L 2559 4666 
Q 3259 4666 3668 4311 
Q 4078 3956 4078 3353 
Q 4078 2753 3668 2397 
Q 3259 2041 2559 2041 
L 1581 2041 
L 1581 331 
L 2303 331 
L 2303 0 
L 353 0 
z
" transform="scale(0.015625)"/>
      </defs>
      <use xlink:href="#DejaVuSerif-2d"/>
      <use xlink:href="#DejaVuSerif-43" x="33.789062"/>
      <use xlink:href="#DejaVuSerif-4f" x="110.302734"/>
      <use xlink:href="#DejaVuSerif-48" x="192.285156"/>
      <use xlink:href="#DejaVuSerif-50" x="279.492188"/>
     </g>
    </g>
   </g>
   <g id="matplotlib.axis_2">
    <g id="ytick_1">
     <g id="line2d_7">
      <defs>
       <path id="m11c6a18442" d="M 0 0 
L -3.5 0 
" style="stroke: #000000; stroke-width: 0.8"/>
      </defs>
      <g>
       <use xlink:href="#m11c6a18442" x="84.872" y="528.28" style="stroke: #000000; stroke-width: 0.8"/>
      </g>
     </g>
     <g id="text_8">
      <!-- −10.0 -->
      <g transform="translate(31.904031 533.978828) scale(0.15 -0.15)">
       <use xlink:href="#DejaVuSerif-2212"/>
       <use xlink:href="#DejaVuSerif-31" x="83.789062"/>
       <use xlink:href="#DejaVuSerif-30" x="147.412109"/>
       <use xlink:href="#DejaVuSerif-2e" x="211.035156"/>
       <use xlink:href="#DejaVuSerif-30" x="242.822266"/>
      </g>
     </g>
    </g>
    <g id="ytick_2">
     <g id="line2d_8">
      <g>
       <use xlink:href="#m11c6a18442" x="84.872" y="464.27" style="stroke: #000000; stroke-width: 0.8"/>
      </g>
     </g>
     <g id="text_9">
      <!-- −7.5 -->
      <g transform="translate(41.447781 469.968828) scale(0.15 -0.15)">
       <defs>
        <path id="DejaVuSerif-37" d="M 3609 4347 
L 1784 0 
L 1319 0 
L 3059 4153 
L 903 4153 
L 903 3578 
L 538 3578 
L 538 4666 
L 3609 4666 
L 3609 4347 
z
" transform="scale(0.015625)"/>
        <path id="DejaVuSerif-35" d="M 3219 4666 
L 3219 4153 
L 1081 4153 
L 1081 2816 
Q 1244 2928 1461 2984 
Q 1678 3041 1947 3041 
Q 2703 3041 3140 2622 
Q 3578 2203 3578 1478 
Q 3578 738 3136 323 
Q 2694 -91 1894 -91 
Q 1572 -91 1234 -12 
Q 897 66 544 225 
L 544 1131 
L 897 1131 
Q 925 688 1179 453 
Q 1434 219 1894 219 
Q 2388 219 2653 544 
Q 2919 869 2919 1478 
Q 2919 2084 2655 2407 
Q 2391 2731 1894 2731 
Q 1613 2731 1398 2631 
Q 1184 2531 1019 2322 
L 750 2322 
L 750 4666 
L 3219 4666 
z
" transform="scale(0.015625)"/>
       </defs>
       <use xlink:href="#DejaVuSerif-2212"/>
       <use xlink:href="#DejaVuSerif-37" x="83.789062"/>
       <use xlink:href="#DejaVuSerif-2e" x="147.412109"/>
       <use xlink:href="#DejaVuSerif-35" x="179.199219"/>
      </g>
     </g>
    </g>
    <g id="ytick_3">
     <g id="line2d_9">
      <g>
       <use xlink:href="#m11c6a18442" x="84.872" y="400.26" style="stroke: #000000; stroke-width: 0.8"/>
      </g>
     </g>
     <g id="text_10">
      <!-- −5.0 -->
      <g transform="translate(41.447781 405.958828) scale(0.15 -0.15)">
       <use xlink:href="#DejaVuSerif-2212"/>
       <use xlink:href="#DejaVuSerif-35" x="83.789062"/>
       <use xlink:href="#DejaVuSerif-2e" x="147.412109"/>
       <use xlink:href="#DejaVuSerif-30" x="179.199219"/>
      </g>
     </g>
    </g>
    <g id="ytick_4">
     <g id="line2d_10">
      <g>
       <use xlink:href="#m11c6a18442" x="84.872" y="336.25" style="stroke: #000000; stroke-width: 0.8"/>
      </g>
     </g>
     <g id="text_11">
      <!-- −2.5 -->
      <g transform="translate(41.447781 341.948828) scale(0.15 -0.15)">
       <use xlink:href="#DejaVuSerif-2212"/>
       <use xlink:href="#DejaVuSerif-32" x="83.789062"/>
       <use xlink:href="#DejaVuSerif-2e" x="147.412109"/>
       <use xlink:href="#DejaVuSerif-35" x="179.199219"/>
      </g>
     </g>
    </g>
    <g id="ytick_5">
     <g id="line2d_11">
      <g>
       <use xlink:href="#m11c6a18442" x="84.872" y="272.24" style="stroke: #000000; stroke-width: 0.8"/>
      </g>
     </g>
     <g id="text_12">
      <!-- 0.0 -->
      <g transform="translate(54.017313 277.938828) scale(0.15 -0.15)">
       <use xlink:href="#DejaVuSerif-30"/>
       <use xlink:href="#DejaVuSerif-2e" x="63.623047"/>
       <use xlink:href="#DejaVuSerif-30" x="95.410156"/>
      </g>
     </g>
    </g>
    <g id="ytick_6">
     <g id="line2d_12">
      <g>
       <use xlink:href="#m11c6a18442" x="84.872" y="208.23" style="stroke: #000000; stroke-width: 0.8"/>
      </g>
     </g>
     <g id="text_13">
      <!-- 2.5 -->
      <g transform="translate(54.017313 213.928828) scale(0.15 -0.15)">
       <use xlink:href="#DejaVuSerif-32"/>
       <use xlink:href="#DejaVuSerif-2e" x="63.623047"/>
       <use xlink:href="#DejaVuSerif-35" x="95.410156"/>
      </g>
     </g>
    </g>
    <g id="ytick_7">
     <g id="line2d_13">
      <g>
       <use xlink:href="#m11c6a18442" x="84.872" y="144.22" style="stroke: #000000; stroke-width: 0.8"/>
      </g>
     </g>
     <g id="text_14">
      <!-- 5.0 -->
      <g transform="translate(54.017313 149.918828) scale(0.15 -0.15)">
       <use xlink:href="#DejaVuSerif-35"/>
       <use xlink:href="#DejaVuSerif-2e" x="63.623047"/>
       <use xlink:href="#DejaVuSerif-30" x="95.410156"/>
      </g>
     </g>
    </g>
    <g id="ytick_8">
     <g id="line2d_14">
      <g>
       <use xlink:href="#m11c6a18442" x="84.872" y="80.21" style="stroke: #000000; stroke-width: 0.8"/>
      </g>
     </g>
     <g id="text_15">
      <!-- 7.5 -->
      <g transform="translate(54.017313 85.908828) scale(0.15 -0.15)">
       <use xlink:href="#DejaVuSerif-37"/>
       <use xlink:href="#DejaVuSerif-2e" x="63.623047"/>
       <use xlink:href="#DejaVuSerif-35" x="95.410156"/>
      </g>
     </g>
    </g>
    <g id="ytick_9">
     <g id="line2d_15">
      <g>
       <use xlink:href="#m11c6a18442" x="84.872" y="16.2" style="stroke: #000000; stroke-width: 0.8"/>
      </g>
     </g>
     <g id="text_16">
      <!-- 10.0 -->
      <g transform="translate(44.473562 21.898828) scale(0.15 -0.15)">
       <use xlink:href="#DejaVuSerif-31"/>
       <use xlink:href="#DejaVuSerif-30" x="63.623047"/>
       <use xlink:href="#DejaVuSerif-2e" x="127.246094"/>
       <use xlink:href="#DejaVuSerif-30" x="159.033203"/>
      </g>
     </g>
    </g>
    <g id="text_17">
     <!-- E - $E_{f}$ -->
     <g transform="translate(24.7845 291.815) rotate(-90) scale(0.15 -0.15)">
      <defs>
       <path id="DejaVuSerif-45" d="M 353 0 
L 353 331 
L 947 331 
L 947 4331 
L 353 4331 
L 353 4666 
L 4109 4666 
L 4109 3628 
L 3725 3628 
L 3725 4281 
L 1581 4281 
L 1581 2719 
L 3109 2719 
L 3109 3303 
L 3494 3303 
L 3494 1753 
L 3109 1753 
L 3109 2338 
L 1581 2338 
L 1581 384 
L 3775 384 
L 3775 1038 
L 4159 1038 
L 4159 0 
L 353 0 
z
" transform="scale(0.015625)"/>
       <path id="DejaVuSerif-20" transform="scale(0.015625)"/>
       <path id="DejaVuSans-Oblique-45" d="M 1081 4666 
L 4031 4666 
L 3928 4134 
L 1606 4134 
L 1338 2753 
L 3566 2753 
L 3463 2222 
L 1234 2222 
L 909 531 
L 3284 531 
L 3181 0 
L 172 0 
L 1081 4666 
z
" transform="scale(0.015625)"/>
       <path id="DejaVuSans-Oblique-66" d="M 3059 4863 
L 2969 4384 
L 2419 4384 
Q 2106 4384 1964 4261 
Q 1822 4138 1753 3809 
L 1691 3500 
L 2638 3500 
L 2553 3053 
L 1606 3053 
L 1013 0 
L 434 0 
L 1031 3053 
L 481 3053 
L 563 3500 
L 1113 3500 
L 1159 3744 
Q 1278 4363 1576 4613 
Q 1875 4863 2516 4863 
L 3059 4863 
z
" transform="scale(0.015625)"/>
      </defs>
      <use xlink:href="#DejaVuSerif-45" transform="translate(0 0.09375)"/>
      <use xlink:href="#DejaVuSerif-20" transform="translate(72.998047 0.09375)"/>
      <use xlink:href="#DejaVuSerif-2d" transform="translate(104.785156 0.09375)"/>
      <use xlink:href="#DejaVuSerif-20" transform="translate(138.574219 0.09375)"/>
      <use xlink:href="#DejaVuSans-Oblique-45" transform="translate(170.361328 0.09375)"/>
      <use xlink:href="#DejaVuSans-Oblique-66" transform="translate(233.544922 -16.3125) scale(0.7)"/>
     </g>
    </g>
   </g>
   <g id="line2d_16">
    <path d="M 320.829387 577 
L 320.879942 495.273628 
L 321.183268 492.709899 
L 322.396572 486.300962 
L 322.194355 483.737489 
L 321.891029 481.173761 
L 321.891029 479.892025 
L 322.042692 478.610288 
L 322.396572 477.328296 
L 322.902116 476.04656 
L 323.609877 474.764824 
L 324.823181 473.482831 
L 326.946464 472.201095 
L 330.940258 470.919359 
L 337.916759 469.637623 
L 348.836499 468.35563 
L 363.446707 467.073894 
L 379.775763 465.792158 
L 393.981536 464.510422 
L 401.817461 463.228429 
L 400.553602 461.946693 
L 390.594395 460.664957 
L 344.08439 456.819492 
L 334.175737 455.537756 
L 328.665312 454.25602 
L 326.592584 452.974027 
L 326.592584 451.692291 
L 328.564203 449.128819 
L 329.170856 447.846826 
L 329.322519 446.56509 
L 328.614758 444.001618 
L 327.654225 441.437889 
L 325.884823 437.592424 
L 325.530942 436.310688 
L 325.581497 435.028952 
L 326.188149 433.74696 
L 327.350899 432.465223 
L 330.535823 429.901751 
L 331.749128 428.619759 
L 332.204117 427.338022 
L 331.799682 426.056286 
L 330.788595 424.77455 
L 329.625845 423.492558 
L 328.715867 422.210821 
L 328.210323 420.929085 
L 327.957551 418.365357 
L 327.553116 417.08362 
L 326.744247 415.801884 
L 324.165975 413.238156 
L 320.374398 409.392947 
L 318.706105 408.110955 
L 316.33005 406.829218 
L 307.331375 402.983754 
L 305.713636 401.702017 
L 305.814745 400.420281 
L 307.73581 399.138545 
L 311.173506 397.856553 
L 315.773952 396.574816 
L 326.036486 394.011088 
L 330.38416 392.729352 
L 333.467976 391.447615 
L 334.782389 390.165879 
L 334.377954 388.883887 
L 332.608552 387.602151 
L 327.805888 385.038678 
L 325.935377 383.756686 
L 324.671518 382.47495 
L 324.014312 381.193213 
L 323.306551 378.629485 
L 322.95267 377.347749 
L 321.840475 374.784276 
L 321.082159 373.502284 
L 320.020518 372.220548 
L 318.352224 370.938811 
L 315.622289 369.657075 
L 310.920734 368.375083 
L 303.539799 367.093347 
L 293.075048 365.81161 
L 266.887893 363.247882 
L 256.322033 361.966146 
L 252.075467 360.684409 
L 256.675913 359.402673 
L 270.628915 358.120681 
L 292.013406 356.838945 
L 342.820531 354.275472 
L 364.811675 352.99348 
L 381.241839 351.711744 
L 391.35271 350.430007 
L 396.054265 349.148015 
L 397.368678 347.866279 
L 397.924776 346.584543 
L 399.542515 345.302806 
L 405.305711 342.739078 
L 405.912364 341.457342 
L 402.676885 340.175605 
L 395.447613 338.893613 
L 385.336742 337.611877 
L 363.446707 335.048404 
L 354.245815 333.766412 
L 347.016542 332.484676 
L 341.809444 331.20294 
L 338.776183 329.921203 
L 338.169531 328.639211 
L 340.090596 327.357475 
L 344.134944 326.075739 
L 354.245815 323.51201 
L 357.632956 322.230274 
L 358.896815 320.948538 
L 358.542935 319.666801 
L 357.835174 318.384809 
L 358.1385 317.103073 
L 359.655131 315.821337 
L 361.475087 314.5396 
L 362.08174 313.257608 
L 360.413446 311.975872 
L 356.571315 310.694136 
L 351.86976 309.412143 
L 347.774858 308.130407 
L 344.994368 306.848671 
L 343.376629 305.566935 
L 342.062216 304.284942 
L 340.14115 303.003206 
L 336.956226 301.72147 
L 332.507443 300.439734 
L 326.794801 299.157741 
L 320.071072 297.876005 
L 312.437365 296.594269 
L 303.843125 295.312533 
L 294.237798 294.03054 
L 283.11584 292.748804 
L 269.516719 291.467068 
L 251.923804 290.185332 
L 229.073237 288.903339 
L 200.813353 287.621603 
L 138.277619 285.058131 
L 113.404877 283.776138 
L 100.159636 282.494402 
L 102.131256 281.212666 
L 119.82528 279.93093 
L 149.500685 278.648937 
L 219.518464 276.085465 
L 248.991652 274.803729 
L 271.892774 273.521736 
L 288.727373 272.24 
L 300.708755 270.958264 
L 308.89856 269.676271 
L 314.105658 268.394535 
L 317.088365 267.112799 
L 318.503887 265.831063 
L 319.059985 264.54907 
L 320.172181 258.140133 
L 320.576616 255.576661 
L 320.677724 253.012932 
L 320.374398 250.44946 
L 319.8183 247.885731 
L 319.110539 245.322259 
L 318.857768 242.75853 
L 318.958876 240.195058 
L 318.857768 238.913065 
L 318.604996 237.631329 
L 317.593909 235.067857 
L 317.240028 233.785864 
L 317.189474 232.504128 
L 317.543354 231.222392 
L 318.908322 228.658663 
L 319.666637 227.376927 
L 321.385485 223.531462 
L 322.295464 220.96799 
L 322.548235 219.685998 
L 322.548235 218.404261 
L 321.941583 215.840789 
L 321.385485 213.27706 
L 321.334931 211.995324 
L 321.739366 209.431596 
L 322.194355 208.149859 
L 322.801007 206.868123 
L 324.519855 204.304395 
L 325.379279 203.022658 
L 326.036486 201.740922 
L 326.440921 200.459186 
L 326.592584 199.177194 
L 326.89591 197.895457 
L 327.906997 196.613721 
L 330.232497 195.331985 
L 334.175737 194.049993 
L 339.635607 192.768256 
L 351.920315 190.204528 
L 356.116326 188.922792 
L 357.380185 187.641055 
L 355.459119 186.359319 
L 351.212554 185.077327 
L 346.308781 183.795591 
L 342.163324 182.513854 
L 336.197911 179.950126 
L 332.052454 178.66839 
L 325.884823 177.386653 
L 310.718517 174.822925 
L 304.803658 173.541189 
L 301.46707 172.259452 
L 300.354874 170.977716 
L 300.607646 169.695724 
L 302.882592 165.850515 
L 303.994788 164.568523 
L 305.561973 163.286787 
L 309.201886 160.723314 
L 310.516299 159.441322 
L 311.072397 158.159586 
L 310.87018 156.877849 
L 309.606321 154.314121 
L 309.454658 153.032385 
L 310.010756 151.750648 
L 311.122952 150.468912 
L 312.437365 149.18692 
L 313.448452 147.905184 
L 313.953995 146.623447 
L 313.852887 145.341455 
L 313.296789 144.059719 
L 311.830713 141.496246 
L 311.325169 140.214254 
L 311.122952 138.932518 
L 311.476832 135.087053 
L 311.274615 133.805317 
L 310.263528 131.241844 
L 310.06131 129.959852 
L 310.516299 128.678116 
L 311.780158 127.39638 
L 313.751778 126.114643 
L 318.352224 123.550915 
L 320.121627 122.269179 
L 321.082159 120.987442 
L 321.183268 119.70545 
L 320.62717 118.423714 
L 319.8183 117.141978 
L 319.211648 115.860241 
L 319.059985 114.578249 
L 319.514974 113.296513 
L 320.374398 112.014777 
L 321.43604 110.73304 
L 322.244909 109.451048 
L 322.649344 108.169312 
L 322.649344 106.887576 
L 320.62717 97.91491 
L 320.475507 96.633174 
L 320.62717 95.351181 
L 321.031605 94.069445 
L 322.093246 91.505973 
L 322.447127 90.22398 
L 322.497681 88.942244 
L 322.396572 87.660508 
L 321.840475 85.096779 
L 321.638257 83.815043 
L 321.638257 81.251571 
L 322.244909 78.687842 
L 322.851562 76.12437 
L 322.902116 74.842377 
L 322.59879 72.278905 
L 321.941583 68.43344 
L 320.930496 62.024503 
L 320.778833 55.61531 
L 320.778833 -1 
L 320.778833 -1 
" clip-path="url(#p3bdc5b7984)" style="fill: none; stroke: #8856a7; stroke-width: 1.5; stroke-linecap: square"/>
   </g>
   <g id="line2d_17">
    <path d="M 320.778833 577 
L 320.829387 495.273628 
L 321.233822 491.428163 
L 321.891029 487.582698 
L 321.992138 485.019226 
L 321.688811 479.892025 
L 322.093246 477.328296 
L 322.447127 476.04656 
L 322.95267 474.764824 
L 323.710986 473.482831 
L 325.075953 472.201095 
L 327.704779 470.919359 
L 332.659106 469.637623 
L 340.899466 468.35563 
L 352.981956 467.073894 
L 382.809024 464.510422 
L 393.728765 463.228429 
L 397.166461 461.946693 
L 391.908808 460.664957 
L 379.573546 459.383221 
L 349.291488 456.819492 
L 338.017867 455.537756 
L 331.041367 454.25602 
L 327.856443 452.974027 
L 327.24979 451.692291 
L 327.957551 450.410555 
L 328.968638 449.128819 
L 329.777508 447.846826 
L 330.03028 446.56509 
L 329.929171 445.283354 
L 329.575291 444.001618 
L 328.564203 441.437889 
L 327.148682 438.874417 
L 326.440921 437.592424 
L 325.935377 436.310688 
L 325.935377 435.028952 
L 326.491475 433.74696 
L 327.755334 432.465223 
L 329.474182 431.183487 
L 333.215204 428.619759 
L 334.377954 427.338022 
L 334.630726 426.056286 
L 334.074628 424.77455 
L 332.254671 422.210821 
L 331.698573 420.929085 
L 330.839149 417.08362 
L 330.080834 415.801884 
L 328.008106 413.238156 
L 327.24979 411.956419 
L 326.794801 410.674683 
L 326.289258 406.829218 
L 325.783714 405.547482 
L 324.418747 402.983754 
L 323.963757 401.702017 
L 323.862649 400.420281 
L 324.11542 399.138545 
L 324.772627 397.856553 
L 325.73316 396.574816 
L 327.047573 395.29308 
L 330.080834 392.729352 
L 331.19303 391.447615 
L 331.648019 390.165879 
L 331.142475 388.883887 
L 329.878617 387.602151 
L 324.823181 383.756686 
L 323.710986 382.47495 
L 323.003225 381.193213 
L 322.548235 379.911477 
L 321.43604 374.784276 
L 321.031605 372.220548 
L 320.930496 370.938811 
L 320.981051 369.657075 
L 321.233822 368.375083 
L 321.840475 367.093347 
L 322.801007 365.81161 
L 326.440921 361.966146 
L 326.693692 360.684409 
L 325.530942 359.402673 
L 322.143801 358.120681 
L 315.824506 356.838945 
L 306.421397 355.557208 
L 284.126927 352.99348 
L 277.099872 351.711744 
L 276.8471 350.430007 
L 284.27859 349.148015 
L 297.523831 347.866279 
L 312.892354 346.584543 
L 326.440921 345.302806 
L 335.591259 344.020814 
L 339.483944 342.739078 
L 338.725628 341.457342 
L 334.782389 340.175605 
L 329.625845 338.893613 
L 325.227616 337.611877 
L 323.154888 336.330141 
L 324.165975 335.048404 
L 327.957551 333.766412 
L 338.725628 331.20294 
L 342.92164 329.921203 
L 345.348249 328.639211 
L 346.258227 327.357475 
L 346.157118 326.075739 
L 345.398803 323.51201 
L 345.095477 322.230274 
L 344.994368 320.948538 
L 345.146031 319.666801 
L 345.853792 317.103073 
L 345.702129 315.821337 
L 344.893259 314.5396 
L 343.781064 313.257608 
L 343.27552 311.975872 
L 344.387716 310.694136 
L 347.370423 309.412143 
L 355.863554 306.848671 
L 357.986837 305.566935 
L 356.621869 304.284942 
L 351.313662 303.003206 
L 342.567759 301.72147 
L 310.06131 297.876005 
L 302.528712 296.594269 
L 298.939353 295.312533 
L 300.000994 294.03054 
L 305.511418 292.748804 
L 314.105658 291.467068 
L 323.660431 290.185332 
L 332.052454 288.903339 
L 337.512324 287.621603 
L 339.483944 286.339867 
L 338.270639 285.058131 
L 335.085715 283.776138 
L 331.19303 282.494402 
L 327.704779 281.212666 
L 325.177062 279.93093 
L 323.862649 278.648937 
L 323.559323 277.367201 
L 324.11542 274.803729 
L 323.913203 273.521736 
L 322.548235 272.24 
L 319.312757 270.958264 
L 313.094571 269.676271 
L 302.528712 268.394535 
L 285.997438 267.112799 
L 262.43911 265.831063 
L 232.662596 264.54907 
L 200.055038 263.267334 
L 170.531296 261.985598 
L 151.219533 260.703862 
L 147.427956 259.421869 
L 160.47098 258.140133 
L 186.961461 256.858397 
L 252.277685 254.294668 
L 278.565948 253.012932 
L 296.765515 251.731196 
L 307.432484 250.44946 
L 312.487919 249.167467 
L 314.105658 247.885731 
L 314.00455 246.603995 
L 313.347343 245.322259 
L 312.8418 244.040266 
L 312.892354 242.75853 
L 313.499006 241.476794 
L 314.307876 240.195058 
L 314.965082 238.913065 
L 315.015637 237.631329 
L 314.408985 236.349593 
L 312.083484 233.785864 
L 311.325169 232.504128 
L 311.426278 231.222392 
L 312.285702 229.9404 
L 315.015637 227.376927 
L 316.127833 226.095191 
L 316.835594 224.813199 
L 317.189474 223.531462 
L 317.4928 220.96799 
L 317.796126 218.404261 
L 318.402778 215.840789 
L 320.930496 206.868123 
L 321.941583 204.304395 
L 323.003225 201.740922 
L 323.508768 199.177194 
L 323.76154 197.895457 
L 324.317638 196.613721 
L 325.632051 195.331985 
L 327.957551 194.049993 
L 331.496356 192.768256 
L 340.444476 190.204528 
L 344.185499 188.922792 
L 346.005455 187.641055 
L 345.499912 186.359319 
L 342.972194 185.077327 
L 339.686161 183.795591 
L 336.855117 182.513854 
L 335.338487 181.232118 
L 334.832943 179.950126 
L 334.024074 178.66839 
L 331.648019 177.386653 
L 327.199236 176.104917 
L 315.420072 173.541189 
L 311.021843 172.259452 
L 308.797451 170.977716 
L 308.393017 169.695724 
L 309.050223 168.413988 
L 310.87018 165.850515 
L 313.044017 162.00505 
L 313.852887 160.723314 
L 314.459539 159.441322 
L 314.661756 158.159586 
L 314.307876 156.877849 
L 312.538474 154.314121 
L 311.982376 153.032385 
L 312.184593 151.750648 
L 313.19568 150.468912 
L 315.875061 147.905184 
L 316.633376 146.623447 
L 316.582822 145.341455 
L 315.824506 144.059719 
L 312.235147 140.214254 
L 311.577941 138.932518 
L 311.426278 137.650782 
L 311.527386 136.369045 
L 311.931821 133.805317 
L 311.780158 132.523581 
L 311.173506 129.959852 
L 311.122952 128.678116 
L 311.577941 127.39638 
L 312.639582 126.114643 
L 314.206767 124.832651 
L 317.745572 122.269179 
L 319.009431 120.987442 
L 319.616083 119.70545 
L 319.616083 118.423714 
L 318.807213 115.860241 
L 318.65555 114.578249 
L 319.009431 113.296513 
L 321.385485 109.451048 
L 321.840475 108.169312 
L 321.891029 106.887576 
L 321.688811 105.605583 
L 321.334931 104.323847 
L 319.312757 99.196646 
L 319.009431 97.91491 
L 319.009431 96.633174 
L 319.312757 95.351181 
L 319.868855 94.069445 
L 321.334931 91.505973 
L 321.840475 90.22398 
L 322.194355 88.942244 
L 322.396572 87.660508 
L 322.295464 83.815043 
L 322.244909 79.969578 
L 322.750453 77.406106 
L 323.053779 76.12437 
L 323.154888 74.842377 
L 322.95267 73.560641 
L 321.941583 70.997169 
L 321.43604 69.715176 
L 321.132714 68.43344 
L 320.981051 67.151704 
L 320.879942 62.024503 
L 320.778833 56.897302 
L 320.778833 -1 
L 320.778833 -1 
" clip-path="url(#p3bdc5b7984)" style="fill: none; stroke-dasharray: 5.55,2.4; stroke-dashoffset: 0; stroke: #8856a7; stroke-width: 1.5"/>
   </g>
   <g id="line2d_18">
    <path d="M 84.872 272.24 
L 421.2 272.24 
" clip-path="url(#p3bdc5b7984)" style="fill: none; stroke-dasharray: 4.625,2; stroke-dashoffset: 0; stroke: #1f77b4; stroke-width: 1.25"/>
   </g>
   <g id="line2d_19">
    <path d="M 320.778833 528.28 
L 320.778833 16.2 
" clip-path="url(#p3bdc5b7984)" style="fill: none; stroke-dasharray: 4.625,2; stroke-dashoffset: 0; stroke: #1f77b4; stroke-width: 1.25"/>
   </g>
   <g id="patch_3">
    <path d="M 84.872 528.28 
L 84.872 16.2 
" style="fill: none; stroke: #000000; stroke-width: 0.8; stroke-linejoin: miter; stroke-linecap: square"/>
   </g>
   <g id="patch_4">
    <path d="M 421.2 528.28 
L 421.2 16.2 
" style="fill: none; stroke: #000000; stroke-width: 0.8; stroke-linejoin: miter; stroke-linecap: square"/>
   </g>
   <g id="patch_5">
    <path d="M 84.872 528.28 
L 421.2 528.28 
" style="fill: none; stroke: #000000; stroke-width: 0.8; stroke-linejoin: miter; stroke-linecap: square"/>
   </g>
   <g id="patch_6">
    <path d="M 84.872 16.2 
L 421.2 16.2 
" style="fill: none; stroke: #000000; stroke-width: 0.8; stroke-linejoin: miter; stroke-linecap: square"/>
   </g>
   <g id="legend_1">
    <g id="patch_7">
     <path d="M 328.709375 53.55625 
L 414.2 53.55625 
Q 416.2 53.55625 416.2 51.55625 
L 416.2 23.2 
Q 416.2 21.2 414.2 21.2 
L 328.709375 21.2 
Q 326.709375 21.2 326.709375 23.2 
L 326.709375 51.55625 
Q 326.709375 53.55625 328.709375 53.55625 
z
" style="fill: #ffffff; opacity: 0.8; stroke: #cccccc; stroke-linejoin: miter"/>
    </g>
    <g id="line2d_20">
     <path d="M 330.709375 29.298437 
L 340.709375 29.298437 
L 350.709375 29.298437 
" style="fill: none; stroke: #8856a7; stroke-width: 1.5; stroke-linecap: square"/>
    </g>
    <g id="text_18">
     <!-- Spin up -->
     <g transform="translate(358.709375 32.798437) scale(0.1 -0.1)">
      <defs>
       <path id="DejaVuSerif-53" d="M 594 225 
L 594 1288 
L 953 1284 
Q 969 753 1261 498 
Q 1553 244 2150 244 
Q 2706 244 2998 464 
Q 3291 684 3291 1106 
Q 3291 1444 3114 1625 
Q 2938 1806 2369 1978 
L 1753 2163 
Q 1084 2366 811 2669 
Q 538 2972 538 3500 
Q 538 4094 959 4422 
Q 1381 4750 2144 4750 
Q 2469 4750 2856 4679 
Q 3244 4609 3681 4475 
L 3681 3481 
L 3328 3481 
Q 3275 3975 2998 4195 
Q 2722 4416 2156 4416 
Q 1663 4416 1405 4214 
Q 1147 4013 1147 3628 
Q 1147 3294 1340 3103 
Q 1534 2913 2163 2725 
L 2741 2553 
Q 3375 2363 3645 2067 
Q 3916 1772 3916 1275 
Q 3916 597 3481 253 
Q 3047 -91 2188 -91 
Q 1803 -91 1404 -12 
Q 1006 66 594 225 
z
" transform="scale(0.015625)"/>
       <path id="DejaVuSerif-70" d="M 1313 1825 
L 1313 1497 
Q 1313 897 1542 583 
Q 1772 269 2209 269 
Q 2650 269 2876 622 
Q 3103 975 3103 1663 
Q 3103 2353 2876 2703 
Q 2650 3053 2209 3053 
Q 1772 3053 1542 2737 
Q 1313 2422 1313 1825 
z
M 738 2988 
L 184 2988 
L 184 3322 
L 1313 3322 
L 1313 2803 
Q 1481 3116 1742 3264 
Q 2003 3413 2388 3413 
Q 3000 3413 3387 2928 
Q 3775 2444 3775 1663 
Q 3775 881 3387 395 
Q 3000 -91 2388 -91 
Q 2003 -91 1742 57 
Q 1481 206 1313 519 
L 1313 -997 
L 1856 -997 
L 1856 -1331 
L 184 -1331 
L 184 -997 
L 738 -997 
L 738 2988 
z
" transform="scale(0.015625)"/>
       <path id="DejaVuSerif-69" d="M 622 4353 
Q 622 4497 726 4603 
Q 831 4709 978 4709 
Q 1122 4709 1226 4603 
Q 1331 4497 1331 4353 
Q 1331 4206 1228 4103 
Q 1125 4000 978 4000 
Q 831 4000 726 4103 
Q 622 4206 622 4353 
z
M 1356 331 
L 1900 331 
L 1900 0 
L 231 0 
L 231 331 
L 781 331 
L 781 2988 
L 231 2988 
L 231 3322 
L 1356 3322 
L 1356 331 
z
" transform="scale(0.015625)"/>
       <path id="DejaVuSerif-6e" d="M 263 0 
L 263 331 
L 781 331 
L 781 2988 
L 231 2988 
L 231 3322 
L 1356 3322 
L 1356 2731 
Q 1516 3069 1770 3241 
Q 2025 3413 2363 3413 
Q 2913 3413 3172 3097 
Q 3431 2781 3431 2113 
L 3431 331 
L 3944 331 
L 3944 0 
L 2356 0 
L 2356 331 
L 2853 331 
L 2853 1931 
Q 2853 2541 2703 2767 
Q 2553 2994 2175 2994 
Q 1775 2994 1565 2701 
Q 1356 2409 1356 1850 
L 1356 331 
L 1856 331 
L 1856 0 
L 263 0 
z
" transform="scale(0.015625)"/>
       <path id="DejaVuSerif-75" d="M 2266 3322 
L 3341 3322 
L 3341 331 
L 3884 331 
L 3884 0 
L 2766 0 
L 2766 588 
Q 2606 256 2353 82 
Q 2100 -91 1766 -91 
Q 1213 -91 952 223 
Q 691 538 691 1209 
L 691 2988 
L 172 2988 
L 172 3322 
L 1269 3322 
L 1269 1388 
Q 1269 781 1417 556 
Q 1566 331 1947 331 
Q 2347 331 2556 625 
Q 2766 919 2766 1478 
L 2766 2988 
L 2266 2988 
L 2266 3322 
z
" transform="scale(0.015625)"/>
      </defs>
      <use xlink:href="#DejaVuSerif-53"/>
      <use xlink:href="#DejaVuSerif-70" x="68.505859"/>
      <use xlink:href="#DejaVuSerif-69" x="132.519531"/>
      <use xlink:href="#DejaVuSerif-6e" x="164.501953"/>
      <use xlink:href="#DejaVuSerif-20" x="228.90625"/>
      <use xlink:href="#DejaVuSerif-75" x="260.693359"/>
      <use xlink:href="#DejaVuSerif-70" x="325.097656"/>
     </g>
    </g>
    <g id="line2d_21">
     <path d="M 330.709375 43.976562 
L 340.709375 43.976562 
L 350.709375 43.976562 
" style="fill: none; stroke-dasharray: 5.55,2.4; stroke-dashoffset: 0; stroke: #8856a7; stroke-width: 1.5"/>
    </g>
    <g id="text_19">
     <!-- Spin down -->
     <g transform="translate(358.709375 47.476562) scale(0.1 -0.1)">
      <defs>
       <path id="DejaVuSerif-64" d="M 3359 331 
L 3909 331 
L 3909 0 
L 2784 0 
L 2784 519 
Q 2616 206 2355 57 
Q 2094 -91 1709 -91 
Q 1097 -91 708 395 
Q 319 881 319 1663 
Q 319 2444 706 2928 
Q 1094 3413 1709 3413 
Q 2094 3413 2355 3264 
Q 2616 3116 2784 2803 
L 2784 4531 
L 2241 4531 
L 2241 4863 
L 3359 4863 
L 3359 331 
z
M 2784 1497 
L 2784 1825 
Q 2784 2422 2554 2737 
Q 2325 3053 1888 3053 
Q 1444 3053 1217 2703 
Q 991 2353 991 1663 
Q 991 975 1217 622 
Q 1444 269 1888 269 
Q 2325 269 2554 583 
Q 2784 897 2784 1497 
z
" transform="scale(0.015625)"/>
       <path id="DejaVuSerif-6f" d="M 1925 219 
Q 2388 219 2623 584 
Q 2859 950 2859 1663 
Q 2859 2375 2623 2739 
Q 2388 3103 1925 3103 
Q 1463 3103 1227 2739 
Q 991 2375 991 1663 
Q 991 950 1228 584 
Q 1466 219 1925 219 
z
M 1925 -91 
Q 1200 -91 759 389 
Q 319 869 319 1663 
Q 319 2456 758 2934 
Q 1197 3413 1925 3413 
Q 2653 3413 3092 2934 
Q 3531 2456 3531 1663 
Q 3531 869 3092 389 
Q 2653 -91 1925 -91 
z
" transform="scale(0.015625)"/>
       <path id="DejaVuSerif-77" d="M 3072 3322 
L 3922 728 
L 4672 2988 
L 4191 2988 
L 4191 3322 
L 5394 3322 
L 5394 2988 
L 5025 2988 
L 4038 0 
L 3559 0 
L 2741 2484 
L 1919 0 
L 1459 0 
L 475 2988 
L 103 2988 
L 103 3322 
L 1606 3322 
L 1606 2988 
L 1069 2988 
L 1813 728 
L 2669 3322 
L 3072 3322 
z
" transform="scale(0.015625)"/>
      </defs>
      <use xlink:href="#DejaVuSerif-53"/>
      <use xlink:href="#DejaVuSerif-70" x="68.505859"/>
      <use xlink:href="#DejaVuSerif-69" x="132.519531"/>
      <use xlink:href="#DejaVuSerif-6e" x="164.501953"/>
      <use xlink:href="#DejaVuSerif-20" x="228.90625"/>
      <use xlink:href="#DejaVuSerif-64" x="260.693359"/>
      <use xlink:href="#DejaVuSerif-6f" x="324.707031"/>
      <use xlink:href="#DejaVuSerif-77" x="384.912109"/>
      <use xlink:href="#DejaVuSerif-6e" x="470.507812"/>
     </g>
    </g>
   </g>
  </g>
 </g>
 <defs>
  <clipPath id="p3bdc5b7984">
   <rect x="84.872" y="16.2" width="336.328" height="512.08"/>
  </clipPath>
 </defs>
</svg>
